<mxfile host="app.diagrams.net" modified="2024-06-18T16:32:58.170Z" agent="Mozilla/5.0 (Windows NT 10.0; Win64; x64) AppleWebKit/537.36 (KHTML, like Gecko) Chrome/124.0.0.0 Safari/537.36" etag="o8sgJJMNy8HIkSbjE9PG" version="24.5.5" type="device">
  <diagram name="PÃ¡gina-1" id="HJsRDjTgsxJXpVJxQQNK">
    <mxGraphModel dx="2261" dy="738" grid="1" gridSize="10" guides="1" tooltips="1" connect="1" arrows="1" fold="1" page="1" pageScale="1" pageWidth="827" pageHeight="1169" math="0" shadow="0">
      <root>
        <mxCell id="0" />
        <mxCell id="1" parent="0" />
        <UserObject label="" plantUmlData="{&quot;data&quot;:&quot;@startuml\n\nclass Cliente {\n    -id: int\n    -nome: str\n    -cpfCnpj: str\n    -endereco: str\n    -telefone: str\n    -email: str\n    -dataNascimento: date\n    +cadastrar()\n    +alterar()\n    +excluir()\n}\n\nclass Atendente{\n    -id: int\n    -nome: str\n    -cpf: str\n    -endereco: str\n    -telefone: str\n    -email: str\n    -dataNascimento: date\n    +cadastrar()\n    +alterar()\n    +excluir()\n}\n\nclass Gerente{\n    -id: int\n    -nome: str\n    -cpf: str\n    -endereco: str\n    -telefone: str\n    -email: str\n    -dataNascimento: date\n    +cadastrar()\n    +alterar()\n    +excluir()\n}\n\nclass Fornecedor {\n    -id: int\n    -nome: str\n    -cpfcnpj: str\n    -endereco: str\n    -telefone: str\n    -email: str\n    +cadastrar()\n    +alterar()\n    +excluir()\n}\n\nclass Produto {\n    -id: int\n    -nome: str\n    -precoVenda: float\n    -precoCusto: float\n    -quantidade: int\n    -categoria: str\n    -subcategoria: str\n    -marca: str\n    -ean: str\n    -unidade: str\n    -estoqueMin: int\n    -estoqueMax: int\n    -validade: date\n    +cadastrar()\n    +alterar()\n    +excluir()\n}\n\nclass Venda {\n    -id: int\n    -data: datetime\n    -valorTotal: float\n    -itens: List[ItemVenda]\n    +adicionarItem()\n    +removerItem()\n    +finalizarVenda()\n}\n\nclass ItemVenda {\n    -id: int\n    -produtoId: int\n    -quantidade: int\n    -precoUnitario: float\n    -vendaId: int\n}\n\nclass Caixa {\n    -id: int\n    -dataAbertura: date\n    -dataFechamento: date\n    -saldoInicial: float\n    -saldoFinal: float\n    -saldoAtual: float\n    +abrir()\n    +fechar()\n    +registrarRessuprimento()\n    +registrarSangria()\n    +verResumo()\n}\n\nclass Pagamento {\n    -id: int\n    -valor: float\n    -data: datetime\n    -tipo: str\n    -vendaId: int\n    -funcionarioId: int\n    +registrar()\n}\n\nclass Relatorio {\n    -id: int\n    -data: datetime\n    -tipo: str\n    +gerarDiario()\n    +gerarMensal()\n    +gerarAnual()\n}\n\nCliente \&quot;1\&quot; -- \&quot;0..*\&quot; Venda\nFuncionario \&quot;1\&quot; -- \&quot;0..*\&quot; Venda\nProduto \&quot;1\&quot; -- \&quot;0..*\&quot; ItemVenda\nVenda \&quot;1\&quot; -- \&quot;0..*\&quot; ItemVenda\nFuncionario \&quot;1\&quot; -- \&quot;0..*\&quot; Pagamento\nFornecedor \&quot;1\&quot; -- \&quot;0..*\&quot; Produto\n\n@enduml\n&quot;,&quot;format&quot;:&quot;svg&quot;}" id="6_7SO-VrZgTFCsC5o0jI-1">
          <mxCell style="shape=image;noLabel=1;verticalAlign=top;aspect=fixed;imageAspect=0;image=data:image/svg+xml,PD94bWwgdmVyc2lvbj0iMS4wIiBlbmNvZGluZz0idXMtYXNjaWkiIHN0YW5kYWxvbmU9Im5vIj8+PHN2ZyB4bWxucz0iaHR0cDovL3d3dy53My5vcmcvMjAwMC9zdmciIHhtbG5zOnhsaW5rPSJodHRwOi8vd3d3LnczLm9yZy8xOTk5L3hsaW5rIiBjb250ZW50U3R5bGVUeXBlPSJ0ZXh0L2NzcyIgaGVpZ2h0PSI3NDJweCIgcHJlc2VydmVBc3BlY3RSYXRpbz0ibm9uZSIgc3R5bGU9IndpZHRoOjk3NXB4O2hlaWdodDo3NDJweDtiYWNrZ3JvdW5kOiNGRkZGRkY7IiB2ZXJzaW9uPSIxLjEiIHZpZXdCb3g9IjAgMCA5NzUgNzQyIiB3aWR0aD0iOTc1cHgiIHpvb21BbmRQYW49Im1hZ25pZnkiPjxkZWZzLz48Zz48IS0tY2xhc3MgQ2xpZW50ZS0tPjxnIGlkPSJlbGVtX0NsaWVudGUiPjxyZWN0IGNvZGVMaW5lPSIxIiBmaWxsPSIjRjFGMUYxIiBoZWlnaHQ9IjE5Ny44NDM4IiBpZD0iQ2xpZW50ZSIgcng9IjIuNSIgcnk9IjIuNSIgc3R5bGU9InN0cm9rZTojMTgxODE4O3N0cm9rZS13aWR0aDowLjU7IiB3aWR0aD0iMTY3IiB4PSI0MjYiIHk9IjciLz48ZWxsaXBzZSBjeD0iNDgwLjc1IiBjeT0iMjMiIGZpbGw9IiNBREQxQjIiIHJ4PSIxMSIgcnk9IjExIiBzdHlsZT0ic3Ryb2tlOiMxODE4MTg7c3Ryb2tlLXdpZHRoOjEuMDsiLz48cGF0aCBkPSJNNDc4LjM3NSwyNy4yNSBMNDc4LjM3NSwyOSBMNDgzLjMxMjUsMjkgTDQ4My4zMTI1LDI3LjI1IEw0NzguMzc1LDI3LjI1IFogTTQ3OS4wNjI1LDI3LjkzNzUgUTQ3OS4wNjI1LDI3LjkzNzUgNDc5LjA2MjUsMTguNzUgTDQ3Ny4zMTI1LDE4Ljc1IFE0NzcuMzEyNSwxOC43NSA0NzcuMzEyNSwyNy45Mzc1IEw0NzkuMDYyNSwyNy45Mzc1IFogTTQ4Mi42MjUsMjcuOTM3NSBMNDg0LjM3NSwyNy45Mzc1IFE0ODQuMzc1LDI3LjkzNzUgNDg0LjM3NSwyNS4xMjUgTDQ4Mi42MjUsMjUuMTI1IFE0ODIuNjI1LDI1LjEyNSA0ODIuNjI1LDI3LjkzNzUgWiBNNDgyLjYyNSwxOC43NSBRNDgyLjYyNSwxOC43NSA0ODIuNjI1LDIxLjU2MjUgTDQ4NC4zNzUsMjEuNTYyNSBRNDg0LjM3NSwyMS41NjI1IDQ4NC4zNzUsMTguNzUgTDQ4Mi42MjUsMTguNzUgWiBNNDc4LjM3NSwxOS40Mzc1IEw0ODMuMzEyNSwxOS40Mzc1IEw0ODMuMzEyNSwxNy42ODc1IEw0NzguMzc1LDE3LjY4NzUgTDQ3OC4zNzUsMTkuNDM3NSBaICIgZmlsbD0iIzAwMDAwMCIvPjx0ZXh0IGZpbGw9IiMwMDAwMDAiIGZvbnQtZmFtaWx5PSJzYW5zLXNlcmlmIiBmb250LXNpemU9IjE0IiBsZW5ndGhBZGp1c3Q9InNwYWNpbmciIHRleHRMZW5ndGg9IjQ5IiB4PSI1MDEuMjUiIHk9IjI4Ljc0MjIiPkNsaWVudGU8L3RleHQ+PGxpbmUgc3R5bGU9InN0cm9rZTojMTgxODE4O3N0cm9rZS13aWR0aDowLjU7IiB4MT0iNDI3IiB4Mj0iNTkyIiB5MT0iMzkiIHkyPSIzOSIvPjxyZWN0IGZpbGw9Im5vbmUiIGhlaWdodD0iNiIgc3R5bGU9InN0cm9rZTojQzgyOTMwO3N0cm9rZS13aWR0aDoxLjA7IiB3aWR0aD0iNiIgeD0iNDM0IiB5PSI0OC45OTIyIi8+PHRleHQgZmlsbD0iIzAwMDAwMCIgZm9udC1mYW1pbHk9InNhbnMtc2VyaWYiIGZvbnQtc2l6ZT0iMTQiIGxlbmd0aEFkanVzdD0ic3BhY2luZyIgdGV4dExlbmd0aD0iNDkiIHg9IjQ0NiIgeT0iNTYuMjM0NCI+aWQ6IGludDwvdGV4dD48cmVjdCBmaWxsPSJub25lIiBoZWlnaHQ9IjYiIHN0eWxlPSJzdHJva2U6I0M4MjkzMDtzdHJva2Utd2lkdGg6MS4wOyIgd2lkdGg9IjYiIHg9IjQzNCIgeT0iNjMuOTc2NiIvPjx0ZXh0IGZpbGw9IiMwMDAwMDAiIGZvbnQtZmFtaWx5PSJzYW5zLXNlcmlmIiBmb250LXNpemU9IjE0IiBsZW5ndGhBZGp1c3Q9InNwYWNpbmciIHRleHRMZW5ndGg9IjY0IiB4PSI0NDYiIHk9IjcxLjIxODgiPm5vbWU6IHN0cjwvdGV4dD48cmVjdCBmaWxsPSJub25lIiBoZWlnaHQ9IjYiIHN0eWxlPSJzdHJva2U6I0M4MjkzMDtzdHJva2Utd2lkdGg6MS4wOyIgd2lkdGg9IjYiIHg9IjQzNCIgeT0iNzguOTYwOSIvPjx0ZXh0IGZpbGw9IiMwMDAwMDAiIGZvbnQtZmFtaWx5PSJzYW5zLXNlcmlmIiBmb250LXNpemU9IjE0IiBsZW5ndGhBZGp1c3Q9InNwYWNpbmciIHRleHRMZW5ndGg9Ijg0IiB4PSI0NDYiIHk9Ijg2LjIwMzEiPmNwZkNucGo6IHN0cjwvdGV4dD48cmVjdCBmaWxsPSJub25lIiBoZWlnaHQ9IjYiIHN0eWxlPSJzdHJva2U6I0M4MjkzMDtzdHJva2Utd2lkdGg6MS4wOyIgd2lkdGg9IjYiIHg9IjQzNCIgeT0iOTMuOTQ1MyIvPjx0ZXh0IGZpbGw9IiMwMDAwMDAiIGZvbnQtZmFtaWx5PSJzYW5zLXNlcmlmIiBmb250LXNpemU9IjE0IiBsZW5ndGhBZGp1c3Q9InNwYWNpbmciIHRleHRMZW5ndGg9IjkxIiB4PSI0NDYiIHk9IjEwMS4xODc1Ij5lbmRlcmVjbzogc3RyPC90ZXh0PjxyZWN0IGZpbGw9Im5vbmUiIGhlaWdodD0iNiIgc3R5bGU9InN0cm9rZTojQzgyOTMwO3N0cm9rZS13aWR0aDoxLjA7IiB3aWR0aD0iNiIgeD0iNDM0IiB5PSIxMDguOTI5NyIvPjx0ZXh0IGZpbGw9IiMwMDAwMDAiIGZvbnQtZmFtaWx5PSJzYW5zLXNlcmlmIiBmb250LXNpemU9IjE0IiBsZW5ndGhBZGp1c3Q9InNwYWNpbmciIHRleHRMZW5ndGg9IjkxIiB4PSI0NDYiIHk9IjExNi4xNzE5Ij50ZWxlZm9uZTogc3RyPC90ZXh0PjxyZWN0IGZpbGw9Im5vbmUiIGhlaWdodD0iNiIgc3R5bGU9InN0cm9rZTojQzgyOTMwO3N0cm9rZS13aWR0aDoxLjA7IiB3aWR0aD0iNiIgeD0iNDM0IiB5PSIxMjMuOTE0MSIvPjx0ZXh0IGZpbGw9IiMwMDAwMDAiIGZvbnQtZmFtaWx5PSJzYW5zLXNlcmlmIiBmb250LXNpemU9IjE0IiBsZW5ndGhBZGp1c3Q9InNwYWNpbmciIHRleHRMZW5ndGg9IjcxIiB4PSI0NDYiIHk9IjEzMS4xNTYzIj5lbWFpbDogc3RyPC90ZXh0PjxyZWN0IGZpbGw9Im5vbmUiIGhlaWdodD0iNiIgc3R5bGU9InN0cm9rZTojQzgyOTMwO3N0cm9rZS13aWR0aDoxLjA7IiB3aWR0aD0iNiIgeD0iNDM0IiB5PSIxMzguODk4NCIvPjx0ZXh0IGZpbGw9IiMwMDAwMDAiIGZvbnQtZmFtaWx5PSJzYW5zLXNlcmlmIiBmb250LXNpemU9IjE0IiBsZW5ndGhBZGp1c3Q9InNwYWNpbmciIHRleHRMZW5ndGg9IjE0MSIgeD0iNDQ2IiB5PSIxNDYuMTQwNiI+ZGF0YU5hc2NpbWVudG86IGRhdGU8L3RleHQ+PGxpbmUgc3R5bGU9InN0cm9rZTojMTgxODE4O3N0cm9rZS13aWR0aDowLjU7IiB4MT0iNDI3IiB4Mj0iNTkyIiB5MT0iMTUxLjg5MDYiIHkyPSIxNTEuODkwNiIvPjxlbGxpcHNlIGN4PSI0MzciIGN5PSIxNjQuODgyOCIgZmlsbD0iIzg0QkU4NCIgcng9IjMiIHJ5PSIzIiBzdHlsZT0ic3Ryb2tlOiMwMzgwNDg7c3Ryb2tlLXdpZHRoOjEuMDsiLz48dGV4dCBmaWxsPSIjMDAwMDAwIiBmb250LWZhbWlseT0ic2Fucy1zZXJpZiIgZm9udC1zaXplPSIxNCIgbGVuZ3RoQWRqdXN0PSJzcGFjaW5nIiB0ZXh0TGVuZ3RoPSI3OSIgeD0iNDQ2IiB5PSIxNjkuMTI1Ij5jYWRhc3RyYXIoKTwvdGV4dD48ZWxsaXBzZSBjeD0iNDM3IiBjeT0iMTc5Ljg2NzIiIGZpbGw9IiM4NEJFODQiIHJ4PSIzIiByeT0iMyIgc3R5bGU9InN0cm9rZTojMDM4MDQ4O3N0cm9rZS13aWR0aDoxLjA7Ii8+PHRleHQgZmlsbD0iIzAwMDAwMCIgZm9udC1mYW1pbHk9InNhbnMtc2VyaWYiIGZvbnQtc2l6ZT0iMTQiIGxlbmd0aEFkanVzdD0ic3BhY2luZyIgdGV4dExlbmd0aD0iNjUiIHg9IjQ0NiIgeT0iMTg0LjEwOTQiPmFsdGVyYXIoKTwvdGV4dD48ZWxsaXBzZSBjeD0iNDM3IiBjeT0iMTk0Ljg1MTYiIGZpbGw9IiM4NEJFODQiIHJ4PSIzIiByeT0iMyIgc3R5bGU9InN0cm9rZTojMDM4MDQ4O3N0cm9rZS13aWR0aDoxLjA7Ii8+PHRleHQgZmlsbD0iIzAwMDAwMCIgZm9udC1mYW1pbHk9InNhbnMtc2VyaWYiIGZvbnQtc2l6ZT0iMTQiIGxlbmd0aEFkanVzdD0ic3BhY2luZyIgdGV4dExlbmd0aD0iNjUiIHg9IjQ0NiIgeT0iMTk5LjA5MzgiPmV4Y2x1aXIoKTwvdGV4dD48L2c+PCEtLWNsYXNzIEF0ZW5kZW50ZS0tPjxnIGlkPSJlbGVtX0F0ZW5kZW50ZSI+PHJlY3QgY29kZUxpbmU9IjE0IiBmaWxsPSIjRjFGMUYxIiBoZWlnaHQ9IjE5Ny44NDM4IiBpZD0iQXRlbmRlbnRlIiByeD0iMi41IiByeT0iMi41IiBzdHlsZT0ic3Ryb2tlOiMxODE4MTg7c3Ryb2tlLXdpZHRoOjAuNTsiIHdpZHRoPSIxNjciIHg9IjIyIiB5PSI3Ii8+PGVsbGlwc2UgY3g9IjY5Ljc1IiBjeT0iMjMiIGZpbGw9IiNBREQxQjIiIHJ4PSIxMSIgcnk9IjExIiBzdHlsZT0ic3Ryb2tlOiMxODE4MTg7c3Ryb2tlLXdpZHRoOjEuMDsiLz48cGF0aCBkPSJNNjcuMzc1LDI3LjI1IEw2Ny4zNzUsMjkgTDcyLjMxMjUsMjkgTDcyLjMxMjUsMjcuMjUgTDY3LjM3NSwyNy4yNSBaIE02OC4wNjI1LDI3LjkzNzUgUTY4LjA2MjUsMjcuOTM3NSA2OC4wNjI1LDE4Ljc1IEw2Ni4zMTI1LDE4Ljc1IFE2Ni4zMTI1LDE4Ljc1IDY2LjMxMjUsMjcuOTM3NSBMNjguMDYyNSwyNy45Mzc1IFogTTcxLjYyNSwyNy45Mzc1IEw3My4zNzUsMjcuOTM3NSBRNzMuMzc1LDI3LjkzNzUgNzMuMzc1LDI1LjEyNSBMNzEuNjI1LDI1LjEyNSBRNzEuNjI1LDI1LjEyNSA3MS42MjUsMjcuOTM3NSBaIE03MS42MjUsMTguNzUgUTcxLjYyNSwxOC43NSA3MS42MjUsMjEuNTYyNSBMNzMuMzc1LDIxLjU2MjUgUTczLjM3NSwyMS41NjI1IDczLjM3NSwxOC43NSBMNzEuNjI1LDE4Ljc1IFogTTY3LjM3NSwxOS40Mzc1IEw3Mi4zMTI1LDE5LjQzNzUgTDcyLjMxMjUsMTcuNjg3NSBMNjcuMzc1LDE3LjY4NzUgTDY3LjM3NSwxOS40Mzc1IFogIiBmaWxsPSIjMDAwMDAwIi8+PHRleHQgZmlsbD0iIzAwMDAwMCIgZm9udC1mYW1pbHk9InNhbnMtc2VyaWYiIGZvbnQtc2l6ZT0iMTQiIGxlbmd0aEFkanVzdD0ic3BhY2luZyIgdGV4dExlbmd0aD0iNjMiIHg9IjkwLjI1IiB5PSIyOC43NDIyIj5BdGVuZGVudGU8L3RleHQ+PGxpbmUgc3R5bGU9InN0cm9rZTojMTgxODE4O3N0cm9rZS13aWR0aDowLjU7IiB4MT0iMjMiIHgyPSIxODgiIHkxPSIzOSIgeTI9IjM5Ii8+PHJlY3QgZmlsbD0ibm9uZSIgaGVpZ2h0PSI2IiBzdHlsZT0ic3Ryb2tlOiNDODI5MzA7c3Ryb2tlLXdpZHRoOjEuMDsiIHdpZHRoPSI2IiB4PSIzMCIgeT0iNDguOTkyMiIvPjx0ZXh0IGZpbGw9IiMwMDAwMDAiIGZvbnQtZmFtaWx5PSJzYW5zLXNlcmlmIiBmb250LXNpemU9IjE0IiBsZW5ndGhBZGp1c3Q9InNwYWNpbmciIHRleHRMZW5ndGg9IjQ5IiB4PSI0MiIgeT0iNTYuMjM0NCI+aWQ6IGludDwvdGV4dD48cmVjdCBmaWxsPSJub25lIiBoZWlnaHQ9IjYiIHN0eWxlPSJzdHJva2U6I0M4MjkzMDtzdHJva2Utd2lkdGg6MS4wOyIgd2lkdGg9IjYiIHg9IjMwIiB5PSI2My45NzY2Ii8+PHRleHQgZmlsbD0iIzAwMDAwMCIgZm9udC1mYW1pbHk9InNhbnMtc2VyaWYiIGZvbnQtc2l6ZT0iMTQiIGxlbmd0aEFkanVzdD0ic3BhY2luZyIgdGV4dExlbmd0aD0iNjQiIHg9IjQyIiB5PSI3MS4yMTg4Ij5ub21lOiBzdHI8L3RleHQ+PHJlY3QgZmlsbD0ibm9uZSIgaGVpZ2h0PSI2IiBzdHlsZT0ic3Ryb2tlOiNDODI5MzA7c3Ryb2tlLXdpZHRoOjEuMDsiIHdpZHRoPSI2IiB4PSIzMCIgeT0iNzguOTYwOSIvPjx0ZXh0IGZpbGw9IiMwMDAwMDAiIGZvbnQtZmFtaWx5PSJzYW5zLXNlcmlmIiBmb250LXNpemU9IjE0IiBsZW5ndGhBZGp1c3Q9InNwYWNpbmciIHRleHRMZW5ndGg9IjU2IiB4PSI0MiIgeT0iODYuMjAzMSI+Y3BmOiBzdHI8L3RleHQ+PHJlY3QgZmlsbD0ibm9uZSIgaGVpZ2h0PSI2IiBzdHlsZT0ic3Ryb2tlOiNDODI5MzA7c3Ryb2tlLXdpZHRoOjEuMDsiIHdpZHRoPSI2IiB4PSIzMCIgeT0iOTMuOTQ1MyIvPjx0ZXh0IGZpbGw9IiMwMDAwMDAiIGZvbnQtZmFtaWx5PSJzYW5zLXNlcmlmIiBmb250LXNpemU9IjE0IiBsZW5ndGhBZGp1c3Q9InNwYWNpbmciIHRleHRMZW5ndGg9IjkxIiB4PSI0MiIgeT0iMTAxLjE4NzUiPmVuZGVyZWNvOiBzdHI8L3RleHQ+PHJlY3QgZmlsbD0ibm9uZSIgaGVpZ2h0PSI2IiBzdHlsZT0ic3Ryb2tlOiNDODI5MzA7c3Ryb2tlLXdpZHRoOjEuMDsiIHdpZHRoPSI2IiB4PSIzMCIgeT0iMTA4LjkyOTciLz48dGV4dCBmaWxsPSIjMDAwMDAwIiBmb250LWZhbWlseT0ic2Fucy1zZXJpZiIgZm9udC1zaXplPSIxNCIgbGVuZ3RoQWRqdXN0PSJzcGFjaW5nIiB0ZXh0TGVuZ3RoPSI5MSIgeD0iNDIiIHk9IjExNi4xNzE5Ij50ZWxlZm9uZTogc3RyPC90ZXh0PjxyZWN0IGZpbGw9Im5vbmUiIGhlaWdodD0iNiIgc3R5bGU9InN0cm9rZTojQzgyOTMwO3N0cm9rZS13aWR0aDoxLjA7IiB3aWR0aD0iNiIgeD0iMzAiIHk9IjEyMy45MTQxIi8+PHRleHQgZmlsbD0iIzAwMDAwMCIgZm9udC1mYW1pbHk9InNhbnMtc2VyaWYiIGZvbnQtc2l6ZT0iMTQiIGxlbmd0aEFkanVzdD0ic3BhY2luZyIgdGV4dExlbmd0aD0iNzEiIHg9IjQyIiB5PSIxMzEuMTU2MyI+ZW1haWw6IHN0cjwvdGV4dD48cmVjdCBmaWxsPSJub25lIiBoZWlnaHQ9IjYiIHN0eWxlPSJzdHJva2U6I0M4MjkzMDtzdHJva2Utd2lkdGg6MS4wOyIgd2lkdGg9IjYiIHg9IjMwIiB5PSIxMzguODk4NCIvPjx0ZXh0IGZpbGw9IiMwMDAwMDAiIGZvbnQtZmFtaWx5PSJzYW5zLXNlcmlmIiBmb250LXNpemU9IjE0IiBsZW5ndGhBZGp1c3Q9InNwYWNpbmciIHRleHRMZW5ndGg9IjE0MSIgeD0iNDIiIHk9IjE0Ni4xNDA2Ij5kYXRhTmFzY2ltZW50bzogZGF0ZTwvdGV4dD48bGluZSBzdHlsZT0ic3Ryb2tlOiMxODE4MTg7c3Ryb2tlLXdpZHRoOjAuNTsiIHgxPSIyMyIgeDI9IjE4OCIgeTE9IjE1MS44OTA2IiB5Mj0iMTUxLjg5MDYiLz48ZWxsaXBzZSBjeD0iMzMiIGN5PSIxNjQuODgyOCIgZmlsbD0iIzg0QkU4NCIgcng9IjMiIHJ5PSIzIiBzdHlsZT0ic3Ryb2tlOiMwMzgwNDg7c3Ryb2tlLXdpZHRoOjEuMDsiLz48dGV4dCBmaWxsPSIjMDAwMDAwIiBmb250LWZhbWlseT0ic2Fucy1zZXJpZiIgZm9udC1zaXplPSIxNCIgbGVuZ3RoQWRqdXN0PSJzcGFjaW5nIiB0ZXh0TGVuZ3RoPSI3OSIgeD0iNDIiIHk9IjE2OS4xMjUiPmNhZGFzdHJhcigpPC90ZXh0PjxlbGxpcHNlIGN4PSIzMyIgY3k9IjE3OS44NjcyIiBmaWxsPSIjODRCRTg0IiByeD0iMyIgcnk9IjMiIHN0eWxlPSJzdHJva2U6IzAzODA0ODtzdHJva2Utd2lkdGg6MS4wOyIvPjx0ZXh0IGZpbGw9IiMwMDAwMDAiIGZvbnQtZmFtaWx5PSJzYW5zLXNlcmlmIiBmb250LXNpemU9IjE0IiBsZW5ndGhBZGp1c3Q9InNwYWNpbmciIHRleHRMZW5ndGg9IjY1IiB4PSI0MiIgeT0iMTg0LjEwOTQiPmFsdGVyYXIoKTwvdGV4dD48ZWxsaXBzZSBjeD0iMzMiIGN5PSIxOTQuODUxNiIgZmlsbD0iIzg0QkU4NCIgcng9IjMiIHJ5PSIzIiBzdHlsZT0ic3Ryb2tlOiMwMzgwNDg7c3Ryb2tlLXdpZHRoOjEuMDsiLz48dGV4dCBmaWxsPSIjMDAwMDAwIiBmb250LWZhbWlseT0ic2Fucy1zZXJpZiIgZm9udC1zaXplPSIxNCIgbGVuZ3RoQWRqdXN0PSJzcGFjaW5nIiB0ZXh0TGVuZ3RoPSI2NSIgeD0iNDIiIHk9IjE5OS4wOTM4Ij5leGNsdWlyKCk8L3RleHQ+PC9nPjwhLS1jbGFzcyBHZXJlbnRlLS0+PGcgaWQ9ImVsZW1fR2VyZW50ZSI+PHJlY3QgY29kZUxpbmU9IjI3IiBmaWxsPSIjRjFGMUYxIiBoZWlnaHQ9IjE5Ny44NDM4IiBpZD0iR2VyZW50ZSIgcng9IjIuNSIgcnk9IjIuNSIgc3R5bGU9InN0cm9rZTojMTgxODE4O3N0cm9rZS13aWR0aDowLjU7IiB3aWR0aD0iMTY3IiB4PSIyMjQiIHk9IjciLz48ZWxsaXBzZSBjeD0iMjc4Ljc1IiBjeT0iMjMiIGZpbGw9IiNBREQxQjIiIHJ4PSIxMSIgcnk9IjExIiBzdHlsZT0ic3Ryb2tlOiMxODE4MTg7c3Ryb2tlLXdpZHRoOjEuMDsiLz48cGF0aCBkPSJNMjc2LjM3NSwyNy4yNSBMMjc2LjM3NSwyOSBMMjgxLjMxMjUsMjkgTDI4MS4zMTI1LDI3LjI1IEwyNzYuMzc1LDI3LjI1IFogTTI3Ny4wNjI1LDI3LjkzNzUgUTI3Ny4wNjI1LDI3LjkzNzUgMjc3LjA2MjUsMTguNzUgTDI3NS4zMTI1LDE4Ljc1IFEyNzUuMzEyNSwxOC43NSAyNzUuMzEyNSwyNy45Mzc1IEwyNzcuMDYyNSwyNy45Mzc1IFogTTI4MC42MjUsMjcuOTM3NSBMMjgyLjM3NSwyNy45Mzc1IFEyODIuMzc1LDI3LjkzNzUgMjgyLjM3NSwyNS4xMjUgTDI4MC42MjUsMjUuMTI1IFEyODAuNjI1LDI1LjEyNSAyODAuNjI1LDI3LjkzNzUgWiBNMjgwLjYyNSwxOC43NSBRMjgwLjYyNSwxOC43NSAyODAuNjI1LDIxLjU2MjUgTDI4Mi4zNzUsMjEuNTYyNSBRMjgyLjM3NSwyMS41NjI1IDI4Mi4zNzUsMTguNzUgTDI4MC42MjUsMTguNzUgWiBNMjc2LjM3NSwxOS40Mzc1IEwyODEuMzEyNSwxOS40Mzc1IEwyODEuMzEyNSwxNy42ODc1IEwyNzYuMzc1LDE3LjY4NzUgTDI3Ni4zNzUsMTkuNDM3NSBaICIgZmlsbD0iIzAwMDAwMCIvPjx0ZXh0IGZpbGw9IiMwMDAwMDAiIGZvbnQtZmFtaWx5PSJzYW5zLXNlcmlmIiBmb250LXNpemU9IjE0IiBsZW5ndGhBZGp1c3Q9InNwYWNpbmciIHRleHRMZW5ndGg9IjQ5IiB4PSIyOTkuMjUiIHk9IjI4Ljc0MjIiPkdlcmVudGU8L3RleHQ+PGxpbmUgc3R5bGU9InN0cm9rZTojMTgxODE4O3N0cm9rZS13aWR0aDowLjU7IiB4MT0iMjI1IiB4Mj0iMzkwIiB5MT0iMzkiIHkyPSIzOSIvPjxyZWN0IGZpbGw9Im5vbmUiIGhlaWdodD0iNiIgc3R5bGU9InN0cm9rZTojQzgyOTMwO3N0cm9rZS13aWR0aDoxLjA7IiB3aWR0aD0iNiIgeD0iMjMyIiB5PSI0OC45OTIyIi8+PHRleHQgZmlsbD0iIzAwMDAwMCIgZm9udC1mYW1pbHk9InNhbnMtc2VyaWYiIGZvbnQtc2l6ZT0iMTQiIGxlbmd0aEFkanVzdD0ic3BhY2luZyIgdGV4dExlbmd0aD0iNDkiIHg9IjI0NCIgeT0iNTYuMjM0NCI+aWQ6IGludDwvdGV4dD48cmVjdCBmaWxsPSJub25lIiBoZWlnaHQ9IjYiIHN0eWxlPSJzdHJva2U6I0M4MjkzMDtzdHJva2Utd2lkdGg6MS4wOyIgd2lkdGg9IjYiIHg9IjIzMiIgeT0iNjMuOTc2NiIvPjx0ZXh0IGZpbGw9IiMwMDAwMDAiIGZvbnQtZmFtaWx5PSJzYW5zLXNlcmlmIiBmb250LXNpemU9IjE0IiBsZW5ndGhBZGp1c3Q9InNwYWNpbmciIHRleHRMZW5ndGg9IjY0IiB4PSIyNDQiIHk9IjcxLjIxODgiPm5vbWU6IHN0cjwvdGV4dD48cmVjdCBmaWxsPSJub25lIiBoZWlnaHQ9IjYiIHN0eWxlPSJzdHJva2U6I0M4MjkzMDtzdHJva2Utd2lkdGg6MS4wOyIgd2lkdGg9IjYiIHg9IjIzMiIgeT0iNzguOTYwOSIvPjx0ZXh0IGZpbGw9IiMwMDAwMDAiIGZvbnQtZmFtaWx5PSJzYW5zLXNlcmlmIiBmb250LXNpemU9IjE0IiBsZW5ndGhBZGp1c3Q9InNwYWNpbmciIHRleHRMZW5ndGg9IjU2IiB4PSIyNDQiIHk9Ijg2LjIwMzEiPmNwZjogc3RyPC90ZXh0PjxyZWN0IGZpbGw9Im5vbmUiIGhlaWdodD0iNiIgc3R5bGU9InN0cm9rZTojQzgyOTMwO3N0cm9rZS13aWR0aDoxLjA7IiB3aWR0aD0iNiIgeD0iMjMyIiB5PSI5My45NDUzIi8+PHRleHQgZmlsbD0iIzAwMDAwMCIgZm9udC1mYW1pbHk9InNhbnMtc2VyaWYiIGZvbnQtc2l6ZT0iMTQiIGxlbmd0aEFkanVzdD0ic3BhY2luZyIgdGV4dExlbmd0aD0iOTEiIHg9IjI0NCIgeT0iMTAxLjE4NzUiPmVuZGVyZWNvOiBzdHI8L3RleHQ+PHJlY3QgZmlsbD0ibm9uZSIgaGVpZ2h0PSI2IiBzdHlsZT0ic3Ryb2tlOiNDODI5MzA7c3Ryb2tlLXdpZHRoOjEuMDsiIHdpZHRoPSI2IiB4PSIyMzIiIHk9IjEwOC45Mjk3Ii8+PHRleHQgZmlsbD0iIzAwMDAwMCIgZm9udC1mYW1pbHk9InNhbnMtc2VyaWYiIGZvbnQtc2l6ZT0iMTQiIGxlbmd0aEFkanVzdD0ic3BhY2luZyIgdGV4dExlbmd0aD0iOTEiIHg9IjI0NCIgeT0iMTE2LjE3MTkiPnRlbGVmb25lOiBzdHI8L3RleHQ+PHJlY3QgZmlsbD0ibm9uZSIgaGVpZ2h0PSI2IiBzdHlsZT0ic3Ryb2tlOiNDODI5MzA7c3Ryb2tlLXdpZHRoOjEuMDsiIHdpZHRoPSI2IiB4PSIyMzIiIHk9IjEyMy45MTQxIi8+PHRleHQgZmlsbD0iIzAwMDAwMCIgZm9udC1mYW1pbHk9InNhbnMtc2VyaWYiIGZvbnQtc2l6ZT0iMTQiIGxlbmd0aEFkanVzdD0ic3BhY2luZyIgdGV4dExlbmd0aD0iNzEiIHg9IjI0NCIgeT0iMTMxLjE1NjMiPmVtYWlsOiBzdHI8L3RleHQ+PHJlY3QgZmlsbD0ibm9uZSIgaGVpZ2h0PSI2IiBzdHlsZT0ic3Ryb2tlOiNDODI5MzA7c3Ryb2tlLXdpZHRoOjEuMDsiIHdpZHRoPSI2IiB4PSIyMzIiIHk9IjEzOC44OTg0Ii8+PHRleHQgZmlsbD0iIzAwMDAwMCIgZm9udC1mYW1pbHk9InNhbnMtc2VyaWYiIGZvbnQtc2l6ZT0iMTQiIGxlbmd0aEFkanVzdD0ic3BhY2luZyIgdGV4dExlbmd0aD0iMTQxIiB4PSIyNDQiIHk9IjE0Ni4xNDA2Ij5kYXRhTmFzY2ltZW50bzogZGF0ZTwvdGV4dD48bGluZSBzdHlsZT0ic3Ryb2tlOiMxODE4MTg7c3Ryb2tlLXdpZHRoOjAuNTsiIHgxPSIyMjUiIHgyPSIzOTAiIHkxPSIxNTEuODkwNiIgeTI9IjE1MS44OTA2Ii8+PGVsbGlwc2UgY3g9IjIzNSIgY3k9IjE2NC44ODI4IiBmaWxsPSIjODRCRTg0IiByeD0iMyIgcnk9IjMiIHN0eWxlPSJzdHJva2U6IzAzODA0ODtzdHJva2Utd2lkdGg6MS4wOyIvPjx0ZXh0IGZpbGw9IiMwMDAwMDAiIGZvbnQtZmFtaWx5PSJzYW5zLXNlcmlmIiBmb250LXNpemU9IjE0IiBsZW5ndGhBZGp1c3Q9InNwYWNpbmciIHRleHRMZW5ndGg9Ijc5IiB4PSIyNDQiIHk9IjE2OS4xMjUiPmNhZGFzdHJhcigpPC90ZXh0PjxlbGxpcHNlIGN4PSIyMzUiIGN5PSIxNzkuODY3MiIgZmlsbD0iIzg0QkU4NCIgcng9IjMiIHJ5PSIzIiBzdHlsZT0ic3Ryb2tlOiMwMzgwNDg7c3Ryb2tlLXdpZHRoOjEuMDsiLz48dGV4dCBmaWxsPSIjMDAwMDAwIiBmb250LWZhbWlseT0ic2Fucy1zZXJpZiIgZm9udC1zaXplPSIxNCIgbGVuZ3RoQWRqdXN0PSJzcGFjaW5nIiB0ZXh0TGVuZ3RoPSI2NSIgeD0iMjQ0IiB5PSIxODQuMTA5NCI+YWx0ZXJhcigpPC90ZXh0PjxlbGxpcHNlIGN4PSIyMzUiIGN5PSIxOTQuODUxNiIgZmlsbD0iIzg0QkU4NCIgcng9IjMiIHJ5PSIzIiBzdHlsZT0ic3Ryb2tlOiMwMzgwNDg7c3Ryb2tlLXdpZHRoOjEuMDsiLz48dGV4dCBmaWxsPSIjMDAwMDAwIiBmb250LWZhbWlseT0ic2Fucy1zZXJpZiIgZm9udC1zaXplPSIxNCIgbGVuZ3RoQWRqdXN0PSJzcGFjaW5nIiB0ZXh0TGVuZ3RoPSI2NSIgeD0iMjQ0IiB5PSIxOTkuMDkzOCI+ZXhjbHVpcigpPC90ZXh0PjwvZz48IS0tY2xhc3MgRm9ybmVjZWRvci0tPjxnIGlkPSJlbGVtX0Zvcm5lY2Vkb3IiPjxyZWN0IGNvZGVMaW5lPSI0MCIgZmlsbD0iI0YxRjFGMSIgaGVpZ2h0PSIxODIuODU5NCIgaWQ9IkZvcm5lY2Vkb3IiIHJ4PSIyLjUiIHJ5PSIyLjUiIHN0eWxlPSJzdHJva2U6IzE4MTgxODtzdHJva2Utd2lkdGg6MC41OyIgd2lkdGg9IjExNyIgeD0iODM3IiB5PSIxNC41Ii8+PGVsbGlwc2UgY3g9Ijg1OC43NSIgY3k9IjMwLjUiIGZpbGw9IiNBREQxQjIiIHJ4PSIxMSIgcnk9IjExIiBzdHlsZT0ic3Ryb2tlOiMxODE4MTg7c3Ryb2tlLXdpZHRoOjEuMDsiLz48cGF0aCBkPSJNODU2LjM3NSwzNC43NSBMODU2LjM3NSwzNi41IEw4NjEuMzEyNSwzNi41IEw4NjEuMzEyNSwzNC43NSBMODU2LjM3NSwzNC43NSBaIE04NTcuMDYyNSwzNS40Mzc1IFE4NTcuMDYyNSwzNS40Mzc1IDg1Ny4wNjI1LDI2LjI1IEw4NTUuMzEyNSwyNi4yNSBRODU1LjMxMjUsMjYuMjUgODU1LjMxMjUsMzUuNDM3NSBMODU3LjA2MjUsMzUuNDM3NSBaIE04NjAuNjI1LDM1LjQzNzUgTDg2Mi4zNzUsMzUuNDM3NSBRODYyLjM3NSwzNS40Mzc1IDg2Mi4zNzUsMzIuNjI1IEw4NjAuNjI1LDMyLjYyNSBRODYwLjYyNSwzMi42MjUgODYwLjYyNSwzNS40Mzc1IFogTTg2MC42MjUsMjYuMjUgUTg2MC42MjUsMjYuMjUgODYwLjYyNSwyOS4wNjI1IEw4NjIuMzc1LDI5LjA2MjUgUTg2Mi4zNzUsMjkuMDYyNSA4NjIuMzc1LDI2LjI1IEw4NjAuNjI1LDI2LjI1IFogTTg1Ni4zNzUsMjYuOTM3NSBMODYxLjMxMjUsMjYuOTM3NSBMODYxLjMxMjUsMjUuMTg3NSBMODU2LjM3NSwyNS4xODc1IEw4NTYuMzc1LDI2LjkzNzUgWiAiIGZpbGw9IiMwMDAwMDAiLz48dGV4dCBmaWxsPSIjMDAwMDAwIiBmb250LWZhbWlseT0ic2Fucy1zZXJpZiIgZm9udC1zaXplPSIxNCIgbGVuZ3RoQWRqdXN0PSJzcGFjaW5nIiB0ZXh0TGVuZ3RoPSI3MCIgeD0iODc0LjI1IiB5PSIzNi4yNDIyIj5Gb3JuZWNlZG9yPC90ZXh0PjxsaW5lIHN0eWxlPSJzdHJva2U6IzE4MTgxODtzdHJva2Utd2lkdGg6MC41OyIgeDE9IjgzOCIgeDI9Ijk1MyIgeTE9IjQ2LjUiIHkyPSI0Ni41Ii8+PHJlY3QgZmlsbD0ibm9uZSIgaGVpZ2h0PSI2IiBzdHlsZT0ic3Ryb2tlOiNDODI5MzA7c3Ryb2tlLXdpZHRoOjEuMDsiIHdpZHRoPSI2IiB4PSI4NDUiIHk9IjU2LjQ5MjIiLz48dGV4dCBmaWxsPSIjMDAwMDAwIiBmb250LWZhbWlseT0ic2Fucy1zZXJpZiIgZm9udC1zaXplPSIxNCIgbGVuZ3RoQWRqdXN0PSJzcGFjaW5nIiB0ZXh0TGVuZ3RoPSI0OSIgeD0iODU3IiB5PSI2My43MzQ0Ij5pZDogaW50PC90ZXh0PjxyZWN0IGZpbGw9Im5vbmUiIGhlaWdodD0iNiIgc3R5bGU9InN0cm9rZTojQzgyOTMwO3N0cm9rZS13aWR0aDoxLjA7IiB3aWR0aD0iNiIgeD0iODQ1IiB5PSI3MS40NzY2Ii8+PHRleHQgZmlsbD0iIzAwMDAwMCIgZm9udC1mYW1pbHk9InNhbnMtc2VyaWYiIGZvbnQtc2l6ZT0iMTQiIGxlbmd0aEFkanVzdD0ic3BhY2luZyIgdGV4dExlbmd0aD0iNjQiIHg9Ijg1NyIgeT0iNzguNzE4OCI+bm9tZTogc3RyPC90ZXh0PjxyZWN0IGZpbGw9Im5vbmUiIGhlaWdodD0iNiIgc3R5bGU9InN0cm9rZTojQzgyOTMwO3N0cm9rZS13aWR0aDoxLjA7IiB3aWR0aD0iNiIgeD0iODQ1IiB5PSI4Ni40NjA5Ii8+PHRleHQgZmlsbD0iIzAwMDAwMCIgZm9udC1mYW1pbHk9InNhbnMtc2VyaWYiIGZvbnQtc2l6ZT0iMTQiIGxlbmd0aEFkanVzdD0ic3BhY2luZyIgdGV4dExlbmd0aD0iODQiIHg9Ijg1NyIgeT0iOTMuNzAzMSI+Y3BmY25wajogc3RyPC90ZXh0PjxyZWN0IGZpbGw9Im5vbmUiIGhlaWdodD0iNiIgc3R5bGU9InN0cm9rZTojQzgyOTMwO3N0cm9rZS13aWR0aDoxLjA7IiB3aWR0aD0iNiIgeD0iODQ1IiB5PSIxMDEuNDQ1MyIvPjx0ZXh0IGZpbGw9IiMwMDAwMDAiIGZvbnQtZmFtaWx5PSJzYW5zLXNlcmlmIiBmb250LXNpemU9IjE0IiBsZW5ndGhBZGp1c3Q9InNwYWNpbmciIHRleHRMZW5ndGg9IjkxIiB4PSI4NTciIHk9IjEwOC42ODc1Ij5lbmRlcmVjbzogc3RyPC90ZXh0PjxyZWN0IGZpbGw9Im5vbmUiIGhlaWdodD0iNiIgc3R5bGU9InN0cm9rZTojQzgyOTMwO3N0cm9rZS13aWR0aDoxLjA7IiB3aWR0aD0iNiIgeD0iODQ1IiB5PSIxMTYuNDI5NyIvPjx0ZXh0IGZpbGw9IiMwMDAwMDAiIGZvbnQtZmFtaWx5PSJzYW5zLXNlcmlmIiBmb250LXNpemU9IjE0IiBsZW5ndGhBZGp1c3Q9InNwYWNpbmciIHRleHRMZW5ndGg9IjkxIiB4PSI4NTciIHk9IjEyMy42NzE5Ij50ZWxlZm9uZTogc3RyPC90ZXh0PjxyZWN0IGZpbGw9Im5vbmUiIGhlaWdodD0iNiIgc3R5bGU9InN0cm9rZTojQzgyOTMwO3N0cm9rZS13aWR0aDoxLjA7IiB3aWR0aD0iNiIgeD0iODQ1IiB5PSIxMzEuNDE0MSIvPjx0ZXh0IGZpbGw9IiMwMDAwMDAiIGZvbnQtZmFtaWx5PSJzYW5zLXNlcmlmIiBmb250LXNpemU9IjE0IiBsZW5ndGhBZGp1c3Q9InNwYWNpbmciIHRleHRMZW5ndGg9IjcxIiB4PSI4NTciIHk9IjEzOC42NTYzIj5lbWFpbDogc3RyPC90ZXh0PjxsaW5lIHN0eWxlPSJzdHJva2U6IzE4MTgxODtzdHJva2Utd2lkdGg6MC41OyIgeDE9IjgzOCIgeDI9Ijk1MyIgeTE9IjE0NC40MDYzIiB5Mj0iMTQ0LjQwNjMiLz48ZWxsaXBzZSBjeD0iODQ4IiBjeT0iMTU3LjM5ODQiIGZpbGw9IiM4NEJFODQiIHJ4PSIzIiByeT0iMyIgc3R5bGU9InN0cm9rZTojMDM4MDQ4O3N0cm9rZS13aWR0aDoxLjA7Ii8+PHRleHQgZmlsbD0iIzAwMDAwMCIgZm9udC1mYW1pbHk9InNhbnMtc2VyaWYiIGZvbnQtc2l6ZT0iMTQiIGxlbmd0aEFkanVzdD0ic3BhY2luZyIgdGV4dExlbmd0aD0iNzkiIHg9Ijg1NyIgeT0iMTYxLjY0MDYiPmNhZGFzdHJhcigpPC90ZXh0PjxlbGxpcHNlIGN4PSI4NDgiIGN5PSIxNzIuMzgyOCIgZmlsbD0iIzg0QkU4NCIgcng9IjMiIHJ5PSIzIiBzdHlsZT0ic3Ryb2tlOiMwMzgwNDg7c3Ryb2tlLXdpZHRoOjEuMDsiLz48dGV4dCBmaWxsPSIjMDAwMDAwIiBmb250LWZhbWlseT0ic2Fucy1zZXJpZiIgZm9udC1zaXplPSIxNCIgbGVuZ3RoQWRqdXN0PSJzcGFjaW5nIiB0ZXh0TGVuZ3RoPSI2NSIgeD0iODU3IiB5PSIxNzYuNjI1Ij5hbHRlcmFyKCk8L3RleHQ+PGVsbGlwc2UgY3g9Ijg0OCIgY3k9IjE4Ny4zNjcyIiBmaWxsPSIjODRCRTg0IiByeD0iMyIgcnk9IjMiIHN0eWxlPSJzdHJva2U6IzAzODA0ODtzdHJva2Utd2lkdGg6MS4wOyIvPjx0ZXh0IGZpbGw9IiMwMDAwMDAiIGZvbnQtZmFtaWx5PSJzYW5zLXNlcmlmIiBmb250LXNpemU9IjE0IiBsZW5ndGhBZGp1c3Q9InNwYWNpbmciIHRleHRMZW5ndGg9IjY1IiB4PSI4NTciIHk9IjE5MS42MDk0Ij5leGNsdWlyKCk8L3RleHQ+PC9nPjwhLS1jbGFzcyBQcm9kdXRvLS0+PGcgaWQ9ImVsZW1fUHJvZHV0byI+PHJlY3QgY29kZUxpbmU9IjUyIiBmaWxsPSIjRjFGMUYxIiBoZWlnaHQ9IjI4Ny43NSIgaWQ9IlByb2R1dG8iIHJ4PSIyLjUiIHJ5PSIyLjUiIHN0eWxlPSJzdHJva2U6IzE4MTgxODtzdHJva2Utd2lkdGg6MC41OyIgd2lkdGg9IjE0NSIgeD0iODIzIiB5PSIyNjUiLz48ZWxsaXBzZSBjeD0iODY2LjgiIGN5PSIyODEiIGZpbGw9IiNBREQxQjIiIHJ4PSIxMSIgcnk9IjExIiBzdHlsZT0ic3Ryb2tlOiMxODE4MTg7c3Ryb2tlLXdpZHRoOjEuMDsiLz48cGF0aCBkPSJNODY0LjQyNSwyODUuMjUgTDg2NC40MjUsMjg3IEw4NjkuMzYyNSwyODcgTDg2OS4zNjI1LDI4NS4yNSBMODY0LjQyNSwyODUuMjUgWiBNODY1LjExMjUsMjg1LjkzNzUgUTg2NS4xMTI1LDI4NS45Mzc1IDg2NS4xMTI1LDI3Ni43NSBMODYzLjM2MjUsMjc2Ljc1IFE4NjMuMzYyNSwyNzYuNzUgODYzLjM2MjUsMjg1LjkzNzUgTDg2NS4xMTI1LDI4NS45Mzc1IFogTTg2OC42NzUsMjg1LjkzNzUgTDg3MC40MjUsMjg1LjkzNzUgUTg3MC40MjUsMjg1LjkzNzUgODcwLjQyNSwyODMuMTI1IEw4NjguNjc1LDI4My4xMjUgUTg2OC42NzUsMjgzLjEyNSA4NjguNjc1LDI4NS45Mzc1IFogTTg2OC42NzUsMjc2Ljc1IFE4NjguNjc1LDI3Ni43NSA4NjguNjc1LDI3OS41NjI1IEw4NzAuNDI1LDI3OS41NjI1IFE4NzAuNDI1LDI3OS41NjI1IDg3MC40MjUsMjc2Ljc1IEw4NjguNjc1LDI3Ni43NSBaIE04NjQuNDI1LDI3Ny40Mzc1IEw4NjkuMzYyNSwyNzcuNDM3NSBMODY5LjM2MjUsMjc1LjY4NzUgTDg2NC40MjUsMjc1LjY4NzUgTDg2NC40MjUsMjc3LjQzNzUgWiAiIGZpbGw9IiMwMDAwMDAiLz48dGV4dCBmaWxsPSIjMDAwMDAwIiBmb250LWZhbWlseT0ic2Fucy1zZXJpZiIgZm9udC1zaXplPSIxNCIgbGVuZ3RoQWRqdXN0PSJzcGFjaW5nIiB0ZXh0TGVuZ3RoPSI0OSIgeD0iODg3LjIiIHk9IjI4Ni43NDIyIj5Qcm9kdXRvPC90ZXh0PjxsaW5lIHN0eWxlPSJzdHJva2U6IzE4MTgxODtzdHJva2Utd2lkdGg6MC41OyIgeDE9IjgyNCIgeDI9Ijk2NyIgeTE9IjI5NyIgeTI9IjI5NyIvPjxyZWN0IGZpbGw9Im5vbmUiIGhlaWdodD0iNiIgc3R5bGU9InN0cm9rZTojQzgyOTMwO3N0cm9rZS13aWR0aDoxLjA7IiB3aWR0aD0iNiIgeD0iODMxIiB5PSIzMDYuOTkyMiIvPjx0ZXh0IGZpbGw9IiMwMDAwMDAiIGZvbnQtZmFtaWx5PSJzYW5zLXNlcmlmIiBmb250LXNpemU9IjE0IiBsZW5ndGhBZGp1c3Q9InNwYWNpbmciIHRleHRMZW5ndGg9IjQ5IiB4PSI4NDMiIHk9IjMxNC4yMzQ0Ij5pZDogaW50PC90ZXh0PjxyZWN0IGZpbGw9Im5vbmUiIGhlaWdodD0iNiIgc3R5bGU9InN0cm9rZTojQzgyOTMwO3N0cm9rZS13aWR0aDoxLjA7IiB3aWR0aD0iNiIgeD0iODMxIiB5PSIzMjEuOTc2NiIvPjx0ZXh0IGZpbGw9IiMwMDAwMDAiIGZvbnQtZmFtaWx5PSJzYW5zLXNlcmlmIiBmb250LXNpemU9IjE0IiBsZW5ndGhBZGp1c3Q9InNwYWNpbmciIHRleHRMZW5ndGg9IjY0IiB4PSI4NDMiIHk9IjMyOS4yMTg4Ij5ub21lOiBzdHI8L3RleHQ+PHJlY3QgZmlsbD0ibm9uZSIgaGVpZ2h0PSI2IiBzdHlsZT0ic3Ryb2tlOiNDODI5MzA7c3Ryb2tlLXdpZHRoOjEuMDsiIHdpZHRoPSI2IiB4PSI4MzEiIHk9IjMzNi45NjA5Ii8+PHRleHQgZmlsbD0iIzAwMDAwMCIgZm9udC1mYW1pbHk9InNhbnMtc2VyaWYiIGZvbnQtc2l6ZT0iMTQiIGxlbmd0aEFkanVzdD0ic3BhY2luZyIgdGV4dExlbmd0aD0iMTE5IiB4PSI4NDMiIHk9IjM0NC4yMDMxIj5wcmVjb1ZlbmRhOiBmbG9hdDwvdGV4dD48cmVjdCBmaWxsPSJub25lIiBoZWlnaHQ9IjYiIHN0eWxlPSJzdHJva2U6I0M4MjkzMDtzdHJva2Utd2lkdGg6MS4wOyIgd2lkdGg9IjYiIHg9IjgzMSIgeT0iMzUxLjk0NTMiLz48dGV4dCBmaWxsPSIjMDAwMDAwIiBmb250LWZhbWlseT0ic2Fucy1zZXJpZiIgZm9udC1zaXplPSIxNCIgbGVuZ3RoQWRqdXN0PSJzcGFjaW5nIiB0ZXh0TGVuZ3RoPSIxMTkiIHg9Ijg0MyIgeT0iMzU5LjE4NzUiPnByZWNvQ3VzdG86IGZsb2F0PC90ZXh0PjxyZWN0IGZpbGw9Im5vbmUiIGhlaWdodD0iNiIgc3R5bGU9InN0cm9rZTojQzgyOTMwO3N0cm9rZS13aWR0aDoxLjA7IiB3aWR0aD0iNiIgeD0iODMxIiB5PSIzNjYuOTI5NyIvPjx0ZXh0IGZpbGw9IiMwMDAwMDAiIGZvbnQtZmFtaWx5PSJzYW5zLXNlcmlmIiBmb250LXNpemU9IjE0IiBsZW5ndGhBZGp1c3Q9InNwYWNpbmciIHRleHRMZW5ndGg9IjEwNSIgeD0iODQzIiB5PSIzNzQuMTcxOSI+cXVhbnRpZGFkZTogaW50PC90ZXh0PjxyZWN0IGZpbGw9Im5vbmUiIGhlaWdodD0iNiIgc3R5bGU9InN0cm9rZTojQzgyOTMwO3N0cm9rZS13aWR0aDoxLjA7IiB3aWR0aD0iNiIgeD0iODMxIiB5PSIzODEuOTE0MSIvPjx0ZXh0IGZpbGw9IiMwMDAwMDAiIGZvbnQtZmFtaWx5PSJzYW5zLXNlcmlmIiBmb250LXNpemU9IjE0IiBsZW5ndGhBZGp1c3Q9InNwYWNpbmciIHRleHRMZW5ndGg9Ijk4IiB4PSI4NDMiIHk9IjM4OS4xNTYzIj5jYXRlZ29yaWE6IHN0cjwvdGV4dD48cmVjdCBmaWxsPSJub25lIiBoZWlnaHQ9IjYiIHN0eWxlPSJzdHJva2U6I0M4MjkzMDtzdHJva2Utd2lkdGg6MS4wOyIgd2lkdGg9IjYiIHg9IjgzMSIgeT0iMzk2Ljg5ODQiLz48dGV4dCBmaWxsPSIjMDAwMDAwIiBmb250LWZhbWlseT0ic2Fucy1zZXJpZiIgZm9udC1zaXplPSIxNCIgbGVuZ3RoQWRqdXN0PSJzcGFjaW5nIiB0ZXh0TGVuZ3RoPSIxMTkiIHg9Ijg0MyIgeT0iNDA0LjE0MDYiPnN1YmNhdGVnb3JpYTogc3RyPC90ZXh0PjxyZWN0IGZpbGw9Im5vbmUiIGhlaWdodD0iNiIgc3R5bGU9InN0cm9rZTojQzgyOTMwO3N0cm9rZS13aWR0aDoxLjA7IiB3aWR0aD0iNiIgeD0iODMxIiB5PSI0MTEuODgyOCIvPjx0ZXh0IGZpbGw9IiMwMDAwMDAiIGZvbnQtZmFtaWx5PSJzYW5zLXNlcmlmIiBmb250LXNpemU9IjE0IiBsZW5ndGhBZGp1c3Q9InNwYWNpbmciIHRleHRMZW5ndGg9IjcxIiB4PSI4NDMiIHk9IjQxOS4xMjUiPm1hcmNhOiBzdHI8L3RleHQ+PHJlY3QgZmlsbD0ibm9uZSIgaGVpZ2h0PSI2IiBzdHlsZT0ic3Ryb2tlOiNDODI5MzA7c3Ryb2tlLXdpZHRoOjEuMDsiIHdpZHRoPSI2IiB4PSI4MzEiIHk9IjQyNi44NjcyIi8+PHRleHQgZmlsbD0iIzAwMDAwMCIgZm9udC1mYW1pbHk9InNhbnMtc2VyaWYiIGZvbnQtc2l6ZT0iMTQiIGxlbmd0aEFkanVzdD0ic3BhY2luZyIgdGV4dExlbmd0aD0iNTYiIHg9Ijg0MyIgeT0iNDM0LjEwOTQiPmVhbjogc3RyPC90ZXh0PjxyZWN0IGZpbGw9Im5vbmUiIGhlaWdodD0iNiIgc3R5bGU9InN0cm9rZTojQzgyOTMwO3N0cm9rZS13aWR0aDoxLjA7IiB3aWR0aD0iNiIgeD0iODMxIiB5PSI0NDEuODUxNiIvPjx0ZXh0IGZpbGw9IiMwMDAwMDAiIGZvbnQtZmFtaWx5PSJzYW5zLXNlcmlmIiBmb250LXNpemU9IjE0IiBsZW5ndGhBZGp1c3Q9InNwYWNpbmciIHRleHRMZW5ndGg9Ijg0IiB4PSI4NDMiIHk9IjQ0OS4wOTM4Ij51bmlkYWRlOiBzdHI8L3RleHQ+PHJlY3QgZmlsbD0ibm9uZSIgaGVpZ2h0PSI2IiBzdHlsZT0ic3Ryb2tlOiNDODI5MzA7c3Ryb2tlLXdpZHRoOjEuMDsiIHdpZHRoPSI2IiB4PSI4MzEiIHk9IjQ1Ni44MzU5Ii8+PHRleHQgZmlsbD0iIzAwMDAwMCIgZm9udC1mYW1pbHk9InNhbnMtc2VyaWYiIGZvbnQtc2l6ZT0iMTQiIGxlbmd0aEFkanVzdD0ic3BhY2luZyIgdGV4dExlbmd0aD0iMTA1IiB4PSI4NDMiIHk9IjQ2NC4wNzgxIj5lc3RvcXVlTWluOiBpbnQ8L3RleHQ+PHJlY3QgZmlsbD0ibm9uZSIgaGVpZ2h0PSI2IiBzdHlsZT0ic3Ryb2tlOiNDODI5MzA7c3Ryb2tlLXdpZHRoOjEuMDsiIHdpZHRoPSI2IiB4PSI4MzEiIHk9IjQ3MS44MjAzIi8+PHRleHQgZmlsbD0iIzAwMDAwMCIgZm9udC1mYW1pbHk9InNhbnMtc2VyaWYiIGZvbnQtc2l6ZT0iMTQiIGxlbmd0aEFkanVzdD0ic3BhY2luZyIgdGV4dExlbmd0aD0iMTA1IiB4PSI4NDMiIHk9IjQ3OS4wNjI1Ij5lc3RvcXVlTWF4OiBpbnQ8L3RleHQ+PHJlY3QgZmlsbD0ibm9uZSIgaGVpZ2h0PSI2IiBzdHlsZT0ic3Ryb2tlOiNDODI5MzA7c3Ryb2tlLXdpZHRoOjEuMDsiIHdpZHRoPSI2IiB4PSI4MzEiIHk9IjQ4Ni44MDQ3Ii8+PHRleHQgZmlsbD0iIzAwMDAwMCIgZm9udC1mYW1pbHk9InNhbnMtc2VyaWYiIGZvbnQtc2l6ZT0iMTQiIGxlbmd0aEFkanVzdD0ic3BhY2luZyIgdGV4dExlbmd0aD0iOTgiIHg9Ijg0MyIgeT0iNDk0LjA0NjkiPnZhbGlkYWRlOiBkYXRlPC90ZXh0PjxsaW5lIHN0eWxlPSJzdHJva2U6IzE4MTgxODtzdHJva2Utd2lkdGg6MC41OyIgeDE9IjgyNCIgeDI9Ijk2NyIgeTE9IjQ5OS43OTY5IiB5Mj0iNDk5Ljc5NjkiLz48ZWxsaXBzZSBjeD0iODM0IiBjeT0iNTEyLjc4OTEiIGZpbGw9IiM4NEJFODQiIHJ4PSIzIiByeT0iMyIgc3R5bGU9InN0cm9rZTojMDM4MDQ4O3N0cm9rZS13aWR0aDoxLjA7Ii8+PHRleHQgZmlsbD0iIzAwMDAwMCIgZm9udC1mYW1pbHk9InNhbnMtc2VyaWYiIGZvbnQtc2l6ZT0iMTQiIGxlbmd0aEFkanVzdD0ic3BhY2luZyIgdGV4dExlbmd0aD0iNzkiIHg9Ijg0MyIgeT0iNTE3LjAzMTMiPmNhZGFzdHJhcigpPC90ZXh0PjxlbGxpcHNlIGN4PSI4MzQiIGN5PSI1MjcuNzczNCIgZmlsbD0iIzg0QkU4NCIgcng9IjMiIHJ5PSIzIiBzdHlsZT0ic3Ryb2tlOiMwMzgwNDg7c3Ryb2tlLXdpZHRoOjEuMDsiLz48dGV4dCBmaWxsPSIjMDAwMDAwIiBmb250LWZhbWlseT0ic2Fucy1zZXJpZiIgZm9udC1zaXplPSIxNCIgbGVuZ3RoQWRqdXN0PSJzcGFjaW5nIiB0ZXh0TGVuZ3RoPSI2NSIgeD0iODQzIiB5PSI1MzIuMDE1NiI+YWx0ZXJhcigpPC90ZXh0PjxlbGxpcHNlIGN4PSI4MzQiIGN5PSI1NDIuNzU3OCIgZmlsbD0iIzg0QkU4NCIgcng9IjMiIHJ5PSIzIiBzdHlsZT0ic3Ryb2tlOiMwMzgwNDg7c3Ryb2tlLXdpZHRoOjEuMDsiLz48dGV4dCBmaWxsPSIjMDAwMDAwIiBmb250LWZhbWlseT0ic2Fucy1zZXJpZiIgZm9udC1zaXplPSIxNCIgbGVuZ3RoQWRqdXN0PSJzcGFjaW5nIiB0ZXh0TGVuZ3RoPSI2NSIgeD0iODQzIiB5PSI1NDciPmV4Y2x1aXIoKTwvdGV4dD48L2c+PCEtLWNsYXNzIFZlbmRhLS0+PGcgaWQ9ImVsZW1fVmVuZGEiPjxyZWN0IGNvZGVMaW5lPSI3MSIgZmlsbD0iI0YxRjFGMSIgaGVpZ2h0PSIxNTIuODkwNiIgaWQ9IlZlbmRhIiByeD0iMi41IiByeT0iMi41IiBzdHlsZT0ic3Ryb2tlOiMxODE4MTg7c3Ryb2tlLXdpZHRoOjAuNTsiIHdpZHRoPSIxODEiIHg9IjQxOSIgeT0iMzMyLjUiLz48ZWxsaXBzZSBjeD0iNDg3Ljc1IiBjeT0iMzQ4LjUiIGZpbGw9IiNBREQxQjIiIHJ4PSIxMSIgcnk9IjExIiBzdHlsZT0ic3Ryb2tlOiMxODE4MTg7c3Ryb2tlLXdpZHRoOjEuMDsiLz48cGF0aCBkPSJNNDg1LjM3NSwzNTIuNzUgTDQ4NS4zNzUsMzU0LjUgTDQ5MC4zMTI1LDM1NC41IEw0OTAuMzEyNSwzNTIuNzUgTDQ4NS4zNzUsMzUyLjc1IFogTTQ4Ni4wNjI1LDM1My40Mzc1IFE0ODYuMDYyNSwzNTMuNDM3NSA0ODYuMDYyNSwzNDQuMjUgTDQ4NC4zMTI1LDM0NC4yNSBRNDg0LjMxMjUsMzQ0LjI1IDQ4NC4zMTI1LDM1My40Mzc1IEw0ODYuMDYyNSwzNTMuNDM3NSBaIE00ODkuNjI1LDM1My40Mzc1IEw0OTEuMzc1LDM1My40Mzc1IFE0OTEuMzc1LDM1My40Mzc1IDQ5MS4zNzUsMzUwLjYyNSBMNDg5LjYyNSwzNTAuNjI1IFE0ODkuNjI1LDM1MC42MjUgNDg5LjYyNSwzNTMuNDM3NSBaIE00ODkuNjI1LDM0NC4yNSBRNDg5LjYyNSwzNDQuMjUgNDg5LjYyNSwzNDcuMDYyNSBMNDkxLjM3NSwzNDcuMDYyNSBRNDkxLjM3NSwzNDcuMDYyNSA0OTEuMzc1LDM0NC4yNSBMNDg5LjYyNSwzNDQuMjUgWiBNNDg1LjM3NSwzNDQuOTM3NSBMNDkwLjMxMjUsMzQ0LjkzNzUgTDQ5MC4zMTI1LDM0My4xODc1IEw0ODUuMzc1LDM0My4xODc1IEw0ODUuMzc1LDM0NC45Mzc1IFogIiBmaWxsPSIjMDAwMDAwIi8+PHRleHQgZmlsbD0iIzAwMDAwMCIgZm9udC1mYW1pbHk9InNhbnMtc2VyaWYiIGZvbnQtc2l6ZT0iMTQiIGxlbmd0aEFkanVzdD0ic3BhY2luZyIgdGV4dExlbmd0aD0iMzUiIHg9IjUwOC4yNSIgeT0iMzU0LjI0MjIiPlZlbmRhPC90ZXh0PjxsaW5lIHN0eWxlPSJzdHJva2U6IzE4MTgxODtzdHJva2Utd2lkdGg6MC41OyIgeDE9IjQyMCIgeDI9IjU5OSIgeTE9IjM2NC41IiB5Mj0iMzY0LjUiLz48cmVjdCBmaWxsPSJub25lIiBoZWlnaHQ9IjYiIHN0eWxlPSJzdHJva2U6I0M4MjkzMDtzdHJva2Utd2lkdGg6MS4wOyIgd2lkdGg9IjYiIHg9IjQyNyIgeT0iMzc0LjQ5MjIiLz48dGV4dCBmaWxsPSIjMDAwMDAwIiBmb250LWZhbWlseT0ic2Fucy1zZXJpZiIgZm9udC1zaXplPSIxNCIgbGVuZ3RoQWRqdXN0PSJzcGFjaW5nIiB0ZXh0TGVuZ3RoPSI0OSIgeD0iNDM5IiB5PSIzODEuNzM0NCI+aWQ6IGludDwvdGV4dD48cmVjdCBmaWxsPSJub25lIiBoZWlnaHQ9IjYiIHN0eWxlPSJzdHJva2U6I0M4MjkzMDtzdHJva2Utd2lkdGg6MS4wOyIgd2lkdGg9IjYiIHg9IjQyNyIgeT0iMzg5LjQ3NjYiLz48dGV4dCBmaWxsPSIjMDAwMDAwIiBmb250LWZhbWlseT0ic2Fucy1zZXJpZiIgZm9udC1zaXplPSIxNCIgbGVuZ3RoQWRqdXN0PSJzcGFjaW5nIiB0ZXh0TGVuZ3RoPSI5OSIgeD0iNDM5IiB5PSIzOTYuNzE4OCI+ZGF0YTogZGF0ZXRpbWU8L3RleHQ+PHJlY3QgZmlsbD0ibm9uZSIgaGVpZ2h0PSI2IiBzdHlsZT0ic3Ryb2tlOiNDODI5MzA7c3Ryb2tlLXdpZHRoOjEuMDsiIHdpZHRoPSI2IiB4PSI0MjciIHk9IjQwNC40NjA5Ii8+PHRleHQgZmlsbD0iIzAwMDAwMCIgZm9udC1mYW1pbHk9InNhbnMtc2VyaWYiIGZvbnQtc2l6ZT0iMTQiIGxlbmd0aEFkanVzdD0ic3BhY2luZyIgdGV4dExlbmd0aD0iMTE5IiB4PSI0MzkiIHk9IjQxMS43MDMxIj52YWxvclRvdGFsOiBmbG9hdDwvdGV4dD48cmVjdCBmaWxsPSJub25lIiBoZWlnaHQ9IjYiIHN0eWxlPSJzdHJva2U6I0M4MjkzMDtzdHJva2Utd2lkdGg6MS4wOyIgd2lkdGg9IjYiIHg9IjQyNyIgeT0iNDE5LjQ0NTMiLz48dGV4dCBmaWxsPSIjMDAwMDAwIiBmb250LWZhbWlseT0ic2Fucy1zZXJpZiIgZm9udC1zaXplPSIxNCIgbGVuZ3RoQWRqdXN0PSJzcGFjaW5nIiB0ZXh0TGVuZ3RoPSIxNTUiIHg9IjQzOSIgeT0iNDI2LjY4NzUiPml0ZW5zOiBMaXN0W0l0ZW1WZW5kYV08L3RleHQ+PGxpbmUgc3R5bGU9InN0cm9rZTojMTgxODE4O3N0cm9rZS13aWR0aDowLjU7IiB4MT0iNDIwIiB4Mj0iNTk5IiB5MT0iNDMyLjQzNzUiIHkyPSI0MzIuNDM3NSIvPjxlbGxpcHNlIGN4PSI0MzAiIGN5PSI0NDUuNDI5NyIgZmlsbD0iIzg0QkU4NCIgcng9IjMiIHJ5PSIzIiBzdHlsZT0ic3Ryb2tlOiMwMzgwNDg7c3Ryb2tlLXdpZHRoOjEuMDsiLz48dGV4dCBmaWxsPSIjMDAwMDAwIiBmb250LWZhbWlseT0ic2Fucy1zZXJpZiIgZm9udC1zaXplPSIxNCIgbGVuZ3RoQWRqdXN0PSJzcGFjaW5nIiB0ZXh0TGVuZ3RoPSIxMDgiIHg9IjQzOSIgeT0iNDQ5LjY3MTkiPmFkaWNpb25hckl0ZW0oKTwvdGV4dD48ZWxsaXBzZSBjeD0iNDMwIiBjeT0iNDYwLjQxNDEiIGZpbGw9IiM4NEJFODQiIHJ4PSIzIiByeT0iMyIgc3R5bGU9InN0cm9rZTojMDM4MDQ4O3N0cm9rZS13aWR0aDoxLjA7Ii8+PHRleHQgZmlsbD0iIzAwMDAwMCIgZm9udC1mYW1pbHk9InNhbnMtc2VyaWYiIGZvbnQtc2l6ZT0iMTQiIGxlbmd0aEFkanVzdD0ic3BhY2luZyIgdGV4dExlbmd0aD0iOTUiIHg9IjQzOSIgeT0iNDY0LjY1NjMiPnJlbW92ZXJJdGVtKCk8L3RleHQ+PGVsbGlwc2UgY3g9IjQzMCIgY3k9IjQ3NS4zOTg0IiBmaWxsPSIjODRCRTg0IiByeD0iMyIgcnk9IjMiIHN0eWxlPSJzdHJva2U6IzAzODA0ODtzdHJva2Utd2lkdGg6MS4wOyIvPjx0ZXh0IGZpbGw9IiMwMDAwMDAiIGZvbnQtZmFtaWx5PSJzYW5zLXNlcmlmIiBmb250LXNpemU9IjE0IiBsZW5ndGhBZGp1c3Q9InNwYWNpbmciIHRleHRMZW5ndGg9IjExNCIgeD0iNDM5IiB5PSI0NzkuNjQwNiI+ZmluYWxpemFyVmVuZGEoKTwvdGV4dD48L2c+PCEtLWNsYXNzIEl0ZW1WZW5kYS0tPjxnIGlkPSJlbGVtX0l0ZW1WZW5kYSI+PHJlY3QgY29kZUxpbmU9IjgxIiBmaWxsPSIjRjFGMUYxIiBoZWlnaHQ9IjEyMi45MjE5IiBpZD0iSXRlbVZlbmRhIiByeD0iMi41IiByeT0iMi41IiBzdHlsZT0ic3Ryb2tlOiMxODE4MTg7c3Ryb2tlLXdpZHRoOjAuNTsiIHdpZHRoPSIxNjYiIHg9IjYxOS41IiB5PSI2MTMiLz48ZWxsaXBzZSBjeD0iNjY2LjI1IiBjeT0iNjI5IiBmaWxsPSIjQUREMUIyIiByeD0iMTEiIHJ5PSIxMSIgc3R5bGU9InN0cm9rZTojMTgxODE4O3N0cm9rZS13aWR0aDoxLjA7Ii8+PHBhdGggZD0iTTY2My44NzUsNjMzLjI1IEw2NjMuODc1LDYzNSBMNjY4LjgxMjUsNjM1IEw2NjguODEyNSw2MzMuMjUgTDY2My44NzUsNjMzLjI1IFogTTY2NC41NjI1LDYzMy45Mzc1IFE2NjQuNTYyNSw2MzMuOTM3NSA2NjQuNTYyNSw2MjQuNzUgTDY2Mi44MTI1LDYyNC43NSBRNjYyLjgxMjUsNjI0Ljc1IDY2Mi44MTI1LDYzMy45Mzc1IEw2NjQuNTYyNSw2MzMuOTM3NSBaIE02NjguMTI1LDYzMy45Mzc1IEw2NjkuODc1LDYzMy45Mzc1IFE2NjkuODc1LDYzMy45Mzc1IDY2OS44NzUsNjMxLjEyNSBMNjY4LjEyNSw2MzEuMTI1IFE2NjguMTI1LDYzMS4xMjUgNjY4LjEyNSw2MzMuOTM3NSBaIE02NjguMTI1LDYyNC43NSBRNjY4LjEyNSw2MjQuNzUgNjY4LjEyNSw2MjcuNTYyNSBMNjY5Ljg3NSw2MjcuNTYyNSBRNjY5Ljg3NSw2MjcuNTYyNSA2NjkuODc1LDYyNC43NSBMNjY4LjEyNSw2MjQuNzUgWiBNNjYzLjg3NSw2MjUuNDM3NSBMNjY4LjgxMjUsNjI1LjQzNzUgTDY2OC44MTI1LDYyMy42ODc1IEw2NjMuODc1LDYyMy42ODc1IEw2NjMuODc1LDYyNS40Mzc1IFogIiBmaWxsPSIjMDAwMDAwIi8+PHRleHQgZmlsbD0iIzAwMDAwMCIgZm9udC1mYW1pbHk9InNhbnMtc2VyaWYiIGZvbnQtc2l6ZT0iMTQiIGxlbmd0aEFkanVzdD0ic3BhY2luZyIgdGV4dExlbmd0aD0iNjQiIHg9IjY4Ni43NSIgeT0iNjM0Ljc0MjIiPkl0ZW1WZW5kYTwvdGV4dD48bGluZSBzdHlsZT0ic3Ryb2tlOiMxODE4MTg7c3Ryb2tlLXdpZHRoOjAuNTsiIHgxPSI2MjAuNSIgeDI9Ijc4NC41IiB5MT0iNjQ1IiB5Mj0iNjQ1Ii8+PHJlY3QgZmlsbD0ibm9uZSIgaGVpZ2h0PSI2IiBzdHlsZT0ic3Ryb2tlOiNDODI5MzA7c3Ryb2tlLXdpZHRoOjEuMDsiIHdpZHRoPSI2IiB4PSI2MjcuNSIgeT0iNjU0Ljk5MjIiLz48dGV4dCBmaWxsPSIjMDAwMDAwIiBmb250LWZhbWlseT0ic2Fucy1zZXJpZiIgZm9udC1zaXplPSIxNCIgbGVuZ3RoQWRqdXN0PSJzcGFjaW5nIiB0ZXh0TGVuZ3RoPSI0OSIgeD0iNjM5LjUiIHk9IjY2Mi4yMzQ0Ij5pZDogaW50PC90ZXh0PjxyZWN0IGZpbGw9Im5vbmUiIGhlaWdodD0iNiIgc3R5bGU9InN0cm9rZTojQzgyOTMwO3N0cm9rZS13aWR0aDoxLjA7IiB3aWR0aD0iNiIgeD0iNjI3LjUiIHk9IjY2OS45NzY2Ii8+PHRleHQgZmlsbD0iIzAwMDAwMCIgZm9udC1mYW1pbHk9InNhbnMtc2VyaWYiIGZvbnQtc2l6ZT0iMTQiIGxlbmd0aEFkanVzdD0ic3BhY2luZyIgdGV4dExlbmd0aD0iOTgiIHg9IjYzOS41IiB5PSI2NzcuMjE4OCI+cHJvZHV0b0lkOiBpbnQ8L3RleHQ+PHJlY3QgZmlsbD0ibm9uZSIgaGVpZ2h0PSI2IiBzdHlsZT0ic3Ryb2tlOiNDODI5MzA7c3Ryb2tlLXdpZHRoOjEuMDsiIHdpZHRoPSI2IiB4PSI2MjcuNSIgeT0iNjg0Ljk2MDkiLz48dGV4dCBmaWxsPSIjMDAwMDAwIiBmb250LWZhbWlseT0ic2Fucy1zZXJpZiIgZm9udC1zaXplPSIxNCIgbGVuZ3RoQWRqdXN0PSJzcGFjaW5nIiB0ZXh0TGVuZ3RoPSIxMDUiIHg9IjYzOS41IiB5PSI2OTIuMjAzMSI+cXVhbnRpZGFkZTogaW50PC90ZXh0PjxyZWN0IGZpbGw9Im5vbmUiIGhlaWdodD0iNiIgc3R5bGU9InN0cm9rZTojQzgyOTMwO3N0cm9rZS13aWR0aDoxLjA7IiB3aWR0aD0iNiIgeD0iNjI3LjUiIHk9IjY5OS45NDUzIi8+PHRleHQgZmlsbD0iIzAwMDAwMCIgZm9udC1mYW1pbHk9InNhbnMtc2VyaWYiIGZvbnQtc2l6ZT0iMTQiIGxlbmd0aEFkanVzdD0ic3BhY2luZyIgdGV4dExlbmd0aD0iMTQwIiB4PSI2MzkuNSIgeT0iNzA3LjE4NzUiPnByZWNvVW5pdGFyaW86IGZsb2F0PC90ZXh0PjxyZWN0IGZpbGw9Im5vbmUiIGhlaWdodD0iNiIgc3R5bGU9InN0cm9rZTojQzgyOTMwO3N0cm9rZS13aWR0aDoxLjA7IiB3aWR0aD0iNiIgeD0iNjI3LjUiIHk9IjcxNC45Mjk3Ii8+PHRleHQgZmlsbD0iIzAwMDAwMCIgZm9udC1mYW1pbHk9InNhbnMtc2VyaWYiIGZvbnQtc2l6ZT0iMTQiIGxlbmd0aEFkanVzdD0ic3BhY2luZyIgdGV4dExlbmd0aD0iODQiIHg9IjYzOS41IiB5PSI3MjIuMTcxOSI+dmVuZGFJZDogaW50PC90ZXh0PjxsaW5lIHN0eWxlPSJzdHJva2U6IzE4MTgxODtzdHJva2Utd2lkdGg6MC41OyIgeDE9IjYyMC41IiB4Mj0iNzg0LjUiIHkxPSI3MjcuOTIxOSIgeTI9IjcyNy45MjE5Ii8+PC9nPjwhLS1jbGFzcyBDYWl4YS0tPjxnIGlkPSJlbGVtX0NhaXhhIj48cmVjdCBjb2RlTGluZT0iODkiIGZpbGw9IiNGMUYxRjEiIGhlaWdodD0iMjEyLjgyODEiIGlkPSJDYWl4YSIgcng9IjIuNSIgcnk9IjIuNSIgc3R5bGU9InN0cm9rZTojMTgxODE4O3N0cm9rZS13aWR0aDowLjU7IiB3aWR0aD0iMTk3IiB4PSI3IiB5PSIzMDIuNSIvPjxlbGxpcHNlIGN4PSI4My43NSIgY3k9IjMxOC41IiBmaWxsPSIjQUREMUIyIiByeD0iMTEiIHJ5PSIxMSIgc3R5bGU9InN0cm9rZTojMTgxODE4O3N0cm9rZS13aWR0aDoxLjA7Ii8+PHBhdGggZD0iTTgxLjM3NSwzMjIuNzUgTDgxLjM3NSwzMjQuNSBMODYuMzEyNSwzMjQuNSBMODYuMzEyNSwzMjIuNzUgTDgxLjM3NSwzMjIuNzUgWiBNODIuMDYyNSwzMjMuNDM3NSBRODIuMDYyNSwzMjMuNDM3NSA4Mi4wNjI1LDMxNC4yNSBMODAuMzEyNSwzMTQuMjUgUTgwLjMxMjUsMzE0LjI1IDgwLjMxMjUsMzIzLjQzNzUgTDgyLjA2MjUsMzIzLjQzNzUgWiBNODUuNjI1LDMyMy40Mzc1IEw4Ny4zNzUsMzIzLjQzNzUgUTg3LjM3NSwzMjMuNDM3NSA4Ny4zNzUsMzIwLjYyNSBMODUuNjI1LDMyMC42MjUgUTg1LjYyNSwzMjAuNjI1IDg1LjYyNSwzMjMuNDM3NSBaIE04NS42MjUsMzE0LjI1IFE4NS42MjUsMzE0LjI1IDg1LjYyNSwzMTcuMDYyNSBMODcuMzc1LDMxNy4wNjI1IFE4Ny4zNzUsMzE3LjA2MjUgODcuMzc1LDMxNC4yNSBMODUuNjI1LDMxNC4yNSBaIE04MS4zNzUsMzE0LjkzNzUgTDg2LjMxMjUsMzE0LjkzNzUgTDg2LjMxMjUsMzEzLjE4NzUgTDgxLjM3NSwzMTMuMTg3NSBMODEuMzc1LDMxNC45Mzc1IFogIiBmaWxsPSIjMDAwMDAwIi8+PHRleHQgZmlsbD0iIzAwMDAwMCIgZm9udC1mYW1pbHk9InNhbnMtc2VyaWYiIGZvbnQtc2l6ZT0iMTQiIGxlbmd0aEFkanVzdD0ic3BhY2luZyIgdGV4dExlbmd0aD0iMzUiIHg9IjEwNC4yNSIgeT0iMzI0LjI0MjIiPkNhaXhhPC90ZXh0PjxsaW5lIHN0eWxlPSJzdHJva2U6IzE4MTgxODtzdHJva2Utd2lkdGg6MC41OyIgeDE9IjgiIHgyPSIyMDMiIHkxPSIzMzQuNSIgeTI9IjMzNC41Ii8+PHJlY3QgZmlsbD0ibm9uZSIgaGVpZ2h0PSI2IiBzdHlsZT0ic3Ryb2tlOiNDODI5MzA7c3Ryb2tlLXdpZHRoOjEuMDsiIHdpZHRoPSI2IiB4PSIxNSIgeT0iMzQ0LjQ5MjIiLz48dGV4dCBmaWxsPSIjMDAwMDAwIiBmb250LWZhbWlseT0ic2Fucy1zZXJpZiIgZm9udC1zaXplPSIxNCIgbGVuZ3RoQWRqdXN0PSJzcGFjaW5nIiB0ZXh0TGVuZ3RoPSI0OSIgeD0iMjciIHk9IjM1MS43MzQ0Ij5pZDogaW50PC90ZXh0PjxyZWN0IGZpbGw9Im5vbmUiIGhlaWdodD0iNiIgc3R5bGU9InN0cm9rZTojQzgyOTMwO3N0cm9rZS13aWR0aDoxLjA7IiB3aWR0aD0iNiIgeD0iMTUiIHk9IjM1OS40NzY2Ii8+PHRleHQgZmlsbD0iIzAwMDAwMCIgZm9udC1mYW1pbHk9InNhbnMtc2VyaWYiIGZvbnQtc2l6ZT0iMTQiIGxlbmd0aEFkanVzdD0ic3BhY2luZyIgdGV4dExlbmd0aD0iMTI2IiB4PSIyNyIgeT0iMzY2LjcxODgiPmRhdGFBYmVydHVyYTogZGF0ZTwvdGV4dD48cmVjdCBmaWxsPSJub25lIiBoZWlnaHQ9IjYiIHN0eWxlPSJzdHJva2U6I0M4MjkzMDtzdHJva2Utd2lkdGg6MS4wOyIgd2lkdGg9IjYiIHg9IjE1IiB5PSIzNzQuNDYwOSIvPjx0ZXh0IGZpbGw9IiMwMDAwMDAiIGZvbnQtZmFtaWx5PSJzYW5zLXNlcmlmIiBmb250LXNpemU9IjE0IiBsZW5ndGhBZGp1c3Q9InNwYWNpbmciIHRleHRMZW5ndGg9IjE0MSIgeD0iMjciIHk9IjM4MS43MDMxIj5kYXRhRmVjaGFtZW50bzogZGF0ZTwvdGV4dD48cmVjdCBmaWxsPSJub25lIiBoZWlnaHQ9IjYiIHN0eWxlPSJzdHJva2U6I0M4MjkzMDtzdHJva2Utd2lkdGg6MS4wOyIgd2lkdGg9IjYiIHg9IjE1IiB5PSIzODkuNDQ1MyIvPjx0ZXh0IGZpbGw9IiMwMDAwMDAiIGZvbnQtZmFtaWx5PSJzYW5zLXNlcmlmIiBmb250LXNpemU9IjE0IiBsZW5ndGhBZGp1c3Q9InNwYWNpbmciIHRleHRMZW5ndGg9IjEzMyIgeD0iMjciIHk9IjM5Ni42ODc1Ij5zYWxkb0luaWNpYWw6IGZsb2F0PC90ZXh0PjxyZWN0IGZpbGw9Im5vbmUiIGhlaWdodD0iNiIgc3R5bGU9InN0cm9rZTojQzgyOTMwO3N0cm9rZS13aWR0aDoxLjA7IiB3aWR0aD0iNiIgeD0iMTUiIHk9IjQwNC40Mjk3Ii8+PHRleHQgZmlsbD0iIzAwMDAwMCIgZm9udC1mYW1pbHk9InNhbnMtc2VyaWYiIGZvbnQtc2l6ZT0iMTQiIGxlbmd0aEFkanVzdD0ic3BhY2luZyIgdGV4dExlbmd0aD0iMTE5IiB4PSIyNyIgeT0iNDExLjY3MTkiPnNhbGRvRmluYWw6IGZsb2F0PC90ZXh0PjxyZWN0IGZpbGw9Im5vbmUiIGhlaWdodD0iNiIgc3R5bGU9InN0cm9rZTojQzgyOTMwO3N0cm9rZS13aWR0aDoxLjA7IiB3aWR0aD0iNiIgeD0iMTUiIHk9IjQxOS40MTQxIi8+PHRleHQgZmlsbD0iIzAwMDAwMCIgZm9udC1mYW1pbHk9InNhbnMtc2VyaWYiIGZvbnQtc2l6ZT0iMTQiIGxlbmd0aEFkanVzdD0ic3BhY2luZyIgdGV4dExlbmd0aD0iMTE5IiB4PSIyNyIgeT0iNDI2LjY1NjMiPnNhbGRvQXR1YWw6IGZsb2F0PC90ZXh0PjxsaW5lIHN0eWxlPSJzdHJva2U6IzE4MTgxODtzdHJva2Utd2lkdGg6MC41OyIgeDE9IjgiIHgyPSIyMDMiIHkxPSI0MzIuNDA2MyIgeTI9IjQzMi40MDYzIi8+PGVsbGlwc2UgY3g9IjE4IiBjeT0iNDQ1LjM5ODQiIGZpbGw9IiM4NEJFODQiIHJ4PSIzIiByeT0iMyIgc3R5bGU9InN0cm9rZTojMDM4MDQ4O3N0cm9rZS13aWR0aDoxLjA7Ii8+PHRleHQgZmlsbD0iIzAwMDAwMCIgZm9udC1mYW1pbHk9InNhbnMtc2VyaWYiIGZvbnQtc2l6ZT0iMTQiIGxlbmd0aEFkanVzdD0ic3BhY2luZyIgdGV4dExlbmd0aD0iNTEiIHg9IjI3IiB5PSI0NDkuNjQwNiI+YWJyaXIoKTwvdGV4dD48ZWxsaXBzZSBjeD0iMTgiIGN5PSI0NjAuMzgyOCIgZmlsbD0iIzg0QkU4NCIgcng9IjMiIHJ5PSIzIiBzdHlsZT0ic3Ryb2tlOiMwMzgwNDg7c3Ryb2tlLXdpZHRoOjEuMDsiLz48dGV4dCBmaWxsPSIjMDAwMDAwIiBmb250LWZhbWlseT0ic2Fucy1zZXJpZiIgZm9udC1zaXplPSIxNCIgbGVuZ3RoQWRqdXN0PSJzcGFjaW5nIiB0ZXh0TGVuZ3RoPSI1OCIgeD0iMjciIHk9IjQ2NC42MjUiPmZlY2hhcigpPC90ZXh0PjxlbGxpcHNlIGN4PSIxOCIgY3k9IjQ3NS4zNjcyIiBmaWxsPSIjODRCRTg0IiByeD0iMyIgcnk9IjMiIHN0eWxlPSJzdHJva2U6IzAzODA0ODtzdHJva2Utd2lkdGg6MS4wOyIvPjx0ZXh0IGZpbGw9IiMwMDAwMDAiIGZvbnQtZmFtaWx5PSJzYW5zLXNlcmlmIiBmb250LXNpemU9IjE0IiBsZW5ndGhBZGp1c3Q9InNwYWNpbmciIHRleHRMZW5ndGg9IjE3MSIgeD0iMjciIHk9IjQ3OS42MDk0Ij5yZWdpc3RyYXJSZXNzdXByaW1lbnRvKCk8L3RleHQ+PGVsbGlwc2UgY3g9IjE4IiBjeT0iNDkwLjM1MTYiIGZpbGw9IiM4NEJFODQiIHJ4PSIzIiByeT0iMyIgc3R5bGU9InN0cm9rZTojMDM4MDQ4O3N0cm9rZS13aWR0aDoxLjA7Ii8+PHRleHQgZmlsbD0iIzAwMDAwMCIgZm9udC1mYW1pbHk9InNhbnMtc2VyaWYiIGZvbnQtc2l6ZT0iMTQiIGxlbmd0aEFkanVzdD0ic3BhY2luZyIgdGV4dExlbmd0aD0iMTI4IiB4PSIyNyIgeT0iNDk0LjU5MzgiPnJlZ2lzdHJhclNhbmdyaWEoKTwvdGV4dD48ZWxsaXBzZSBjeD0iMTgiIGN5PSI1MDUuMzM1OSIgZmlsbD0iIzg0QkU4NCIgcng9IjMiIHJ5PSIzIiBzdHlsZT0ic3Ryb2tlOiMwMzgwNDg7c3Ryb2tlLXdpZHRoOjEuMDsiLz48dGV4dCBmaWxsPSIjMDAwMDAwIiBmb250LWZhbWlseT0ic2Fucy1zZXJpZiIgZm9udC1zaXplPSIxNCIgbGVuZ3RoQWRqdXN0PSJzcGFjaW5nIiB0ZXh0TGVuZ3RoPSI4MCIgeD0iMjciIHk9IjUwOS41NzgxIj52ZXJSZXN1bW8oKTwvdGV4dD48L2c+PCEtLWNsYXNzIFBhZ2FtZW50by0tPjxnIGlkPSJlbGVtX1BhZ2FtZW50byI+PHJlY3QgY29kZUxpbmU9IjEwMyIgZmlsbD0iI0YxRjFGMSIgaGVpZ2h0PSIxNTIuODkwNiIgaWQ9IlBhZ2FtZW50byIgcng9IjIuNSIgcnk9IjIuNSIgc3R5bGU9InN0cm9rZTojMTgxODE4O3N0cm9rZS13aWR0aDowLjU7IiB3aWR0aD0iMTUyIiB4PSI2MzUuNSIgeT0iMzMyLjUiLz48ZWxsaXBzZSBjeD0iNjc1LjciIGN5PSIzNDguNSIgZmlsbD0iI0FERDFCMiIgcng9IjExIiByeT0iMTEiIHN0eWxlPSJzdHJva2U6IzE4MTgxODtzdHJva2Utd2lkdGg6MS4wOyIvPjxwYXRoIGQ9Ik02NzMuMzI1LDM1Mi43NSBMNjczLjMyNSwzNTQuNSBMNjc4LjI2MjUsMzU0LjUgTDY3OC4yNjI1LDM1Mi43NSBMNjczLjMyNSwzNTIuNzUgWiBNNjc0LjAxMjUsMzUzLjQzNzUgUTY3NC4wMTI1LDM1My40Mzc1IDY3NC4wMTI1LDM0NC4yNSBMNjcyLjI2MjUsMzQ0LjI1IFE2NzIuMjYyNSwzNDQuMjUgNjcyLjI2MjUsMzUzLjQzNzUgTDY3NC4wMTI1LDM1My40Mzc1IFogTTY3Ny41NzUsMzUzLjQzNzUgTDY3OS4zMjUsMzUzLjQzNzUgUTY3OS4zMjUsMzUzLjQzNzUgNjc5LjMyNSwzNTAuNjI1IEw2NzcuNTc1LDM1MC42MjUgUTY3Ny41NzUsMzUwLjYyNSA2NzcuNTc1LDM1My40Mzc1IFogTTY3Ny41NzUsMzQ0LjI1IFE2NzcuNTc1LDM0NC4yNSA2NzcuNTc1LDM0Ny4wNjI1IEw2NzkuMzI1LDM0Ny4wNjI1IFE2NzkuMzI1LDM0Ny4wNjI1IDY3OS4zMjUsMzQ0LjI1IEw2NzcuNTc1LDM0NC4yNSBaIE02NzMuMzI1LDM0NC45Mzc1IEw2NzguMjYyNSwzNDQuOTM3NSBMNjc4LjI2MjUsMzQzLjE4NzUgTDY3My4zMjUsMzQzLjE4NzUgTDY3My4zMjUsMzQ0LjkzNzUgWiAiIGZpbGw9IiMwMDAwMDAiLz48dGV4dCBmaWxsPSIjMDAwMDAwIiBmb250LWZhbWlseT0ic2Fucy1zZXJpZiIgZm9udC1zaXplPSIxNCIgbGVuZ3RoQWRqdXN0PSJzcGFjaW5nIiB0ZXh0TGVuZ3RoPSI2NCIgeD0iNjk1LjMiIHk9IjM1NC4yNDIyIj5QYWdhbWVudG88L3RleHQ+PGxpbmUgc3R5bGU9InN0cm9rZTojMTgxODE4O3N0cm9rZS13aWR0aDowLjU7IiB4MT0iNjM2LjUiIHgyPSI3ODYuNSIgeTE9IjM2NC41IiB5Mj0iMzY0LjUiLz48cmVjdCBmaWxsPSJub25lIiBoZWlnaHQ9IjYiIHN0eWxlPSJzdHJva2U6I0M4MjkzMDtzdHJva2Utd2lkdGg6MS4wOyIgd2lkdGg9IjYiIHg9IjY0My41IiB5PSIzNzQuNDkyMiIvPjx0ZXh0IGZpbGw9IiMwMDAwMDAiIGZvbnQtZmFtaWx5PSJzYW5zLXNlcmlmIiBmb250LXNpemU9IjE0IiBsZW5ndGhBZGp1c3Q9InNwYWNpbmciIHRleHRMZW5ndGg9IjQ5IiB4PSI2NTUuNSIgeT0iMzgxLjczNDQiPmlkOiBpbnQ8L3RleHQ+PHJlY3QgZmlsbD0ibm9uZSIgaGVpZ2h0PSI2IiBzdHlsZT0ic3Ryb2tlOiNDODI5MzA7c3Ryb2tlLXdpZHRoOjEuMDsiIHdpZHRoPSI2IiB4PSI2NDMuNSIgeT0iMzg5LjQ3NjYiLz48dGV4dCBmaWxsPSIjMDAwMDAwIiBmb250LWZhbWlseT0ic2Fucy1zZXJpZiIgZm9udC1zaXplPSIxNCIgbGVuZ3RoQWRqdXN0PSJzcGFjaW5nIiB0ZXh0TGVuZ3RoPSI4NCIgeD0iNjU1LjUiIHk9IjM5Ni43MTg4Ij52YWxvcjogZmxvYXQ8L3RleHQ+PHJlY3QgZmlsbD0ibm9uZSIgaGVpZ2h0PSI2IiBzdHlsZT0ic3Ryb2tlOiNDODI5MzA7c3Ryb2tlLXdpZHRoOjEuMDsiIHdpZHRoPSI2IiB4PSI2NDMuNSIgeT0iNDA0LjQ2MDkiLz48dGV4dCBmaWxsPSIjMDAwMDAwIiBmb250LWZhbWlseT0ic2Fucy1zZXJpZiIgZm9udC1zaXplPSIxNCIgbGVuZ3RoQWRqdXN0PSJzcGFjaW5nIiB0ZXh0TGVuZ3RoPSI5OSIgeD0iNjU1LjUiIHk9IjQxMS43MDMxIj5kYXRhOiBkYXRldGltZTwvdGV4dD48cmVjdCBmaWxsPSJub25lIiBoZWlnaHQ9IjYiIHN0eWxlPSJzdHJva2U6I0M4MjkzMDtzdHJva2Utd2lkdGg6MS4wOyIgd2lkdGg9IjYiIHg9IjY0My41IiB5PSI0MTkuNDQ1MyIvPjx0ZXh0IGZpbGw9IiMwMDAwMDAiIGZvbnQtZmFtaWx5PSJzYW5zLXNlcmlmIiBmb250LXNpemU9IjE0IiBsZW5ndGhBZGp1c3Q9InNwYWNpbmciIHRleHRMZW5ndGg9IjYzIiB4PSI2NTUuNSIgeT0iNDI2LjY4NzUiPnRpcG86IHN0cjwvdGV4dD48cmVjdCBmaWxsPSJub25lIiBoZWlnaHQ9IjYiIHN0eWxlPSJzdHJva2U6I0M4MjkzMDtzdHJva2Utd2lkdGg6MS4wOyIgd2lkdGg9IjYiIHg9IjY0My41IiB5PSI0MzQuNDI5NyIvPjx0ZXh0IGZpbGw9IiMwMDAwMDAiIGZvbnQtZmFtaWx5PSJzYW5zLXNlcmlmIiBmb250LXNpemU9IjE0IiBsZW5ndGhBZGp1c3Q9InNwYWNpbmciIHRleHRMZW5ndGg9Ijg0IiB4PSI2NTUuNSIgeT0iNDQxLjY3MTkiPnZlbmRhSWQ6IGludDwvdGV4dD48cmVjdCBmaWxsPSJub25lIiBoZWlnaHQ9IjYiIHN0eWxlPSJzdHJva2U6I0M4MjkzMDtzdHJva2Utd2lkdGg6MS4wOyIgd2lkdGg9IjYiIHg9IjY0My41IiB5PSI0NDkuNDE0MSIvPjx0ZXh0IGZpbGw9IiMwMDAwMDAiIGZvbnQtZmFtaWx5PSJzYW5zLXNlcmlmIiBmb250LXNpemU9IjE0IiBsZW5ndGhBZGp1c3Q9InNwYWNpbmciIHRleHRMZW5ndGg9IjEyNiIgeD0iNjU1LjUiIHk9IjQ1Ni42NTYzIj5mdW5jaW9uYXJpb0lkOiBpbnQ8L3RleHQ+PGxpbmUgc3R5bGU9InN0cm9rZTojMTgxODE4O3N0cm9rZS13aWR0aDowLjU7IiB4MT0iNjM2LjUiIHgyPSI3ODYuNSIgeTE9IjQ2Mi40MDYzIiB5Mj0iNDYyLjQwNjMiLz48ZWxsaXBzZSBjeD0iNjQ2LjUiIGN5PSI0NzUuMzk4NCIgZmlsbD0iIzg0QkU4NCIgcng9IjMiIHJ5PSIzIiBzdHlsZT0ic3Ryb2tlOiMwMzgwNDg7c3Ryb2tlLXdpZHRoOjEuMDsiLz48dGV4dCBmaWxsPSIjMDAwMDAwIiBmb250LWZhbWlseT0ic2Fucy1zZXJpZiIgZm9udC1zaXplPSIxNCIgbGVuZ3RoQWRqdXN0PSJzcGFjaW5nIiB0ZXh0TGVuZ3RoPSI3OSIgeD0iNjU1LjUiIHk9IjQ3OS42NDA2Ij5yZWdpc3RyYXIoKTwvdGV4dD48L2c+PCEtLWNsYXNzIFJlbGF0b3Jpby0tPjxnIGlkPSJlbGVtX1JlbGF0b3JpbyI+PHJlY3QgY29kZUxpbmU9IjExMyIgZmlsbD0iI0YxRjFGMSIgaGVpZ2h0PSIxMzcuOTA2MyIgaWQ9IlJlbGF0b3JpbyIgcng9IjIuNSIgcnk9IjIuNSIgc3R5bGU9InN0cm9rZTojMTgxODE4O3N0cm9rZS13aWR0aDowLjU7IiB3aWR0aD0iMTI1IiB4PSIyMzkiIHk9IjM0MCIvPjxlbGxpcHNlIGN4PSIyNjcuNSIgY3k9IjM1NiIgZmlsbD0iI0FERDFCMiIgcng9IjExIiByeT0iMTEiIHN0eWxlPSJzdHJva2U6IzE4MTgxODtzdHJva2Utd2lkdGg6MS4wOyIvPjxwYXRoIGQ9Ik0yNjUuMTI1LDM2MC4yNSBMMjY1LjEyNSwzNjIgTDI3MC4wNjI1LDM2MiBMMjcwLjA2MjUsMzYwLjI1IEwyNjUuMTI1LDM2MC4yNSBaIE0yNjUuODEyNSwzNjAuOTM3NSBRMjY1LjgxMjUsMzYwLjkzNzUgMjY1LjgxMjUsMzUxLjc1IEwyNjQuMDYyNSwzNTEuNzUgUTI2NC4wNjI1LDM1MS43NSAyNjQuMDYyNSwzNjAuOTM3NSBMMjY1LjgxMjUsMzYwLjkzNzUgWiBNMjY5LjM3NSwzNjAuOTM3NSBMMjcxLjEyNSwzNjAuOTM3NSBRMjcxLjEyNSwzNjAuOTM3NSAyNzEuMTI1LDM1OC4xMjUgTDI2OS4zNzUsMzU4LjEyNSBRMjY5LjM3NSwzNTguMTI1IDI2OS4zNzUsMzYwLjkzNzUgWiBNMjY5LjM3NSwzNTEuNzUgUTI2OS4zNzUsMzUxLjc1IDI2OS4zNzUsMzU0LjU2MjUgTDI3MS4xMjUsMzU0LjU2MjUgUTI3MS4xMjUsMzU0LjU2MjUgMjcxLjEyNSwzNTEuNzUgTDI2OS4zNzUsMzUxLjc1IFogTTI2NS4xMjUsMzUyLjQzNzUgTDI3MC4wNjI1LDM1Mi40Mzc1IEwyNzAuMDYyNSwzNTAuNjg3NSBMMjY1LjEyNSwzNTAuNjg3NSBMMjY1LjEyNSwzNTIuNDM3NSBaICIgZmlsbD0iIzAwMDAwMCIvPjx0ZXh0IGZpbGw9IiMwMDAwMDAiIGZvbnQtZmFtaWx5PSJzYW5zLXNlcmlmIiBmb250LXNpemU9IjE0IiBsZW5ndGhBZGp1c3Q9InNwYWNpbmciIHRleHRMZW5ndGg9IjYzIiB4PSIyODQuNSIgeT0iMzYxLjc0MjIiPlJlbGF0b3JpbzwvdGV4dD48bGluZSBzdHlsZT0ic3Ryb2tlOiMxODE4MTg7c3Ryb2tlLXdpZHRoOjAuNTsiIHgxPSIyNDAiIHgyPSIzNjMiIHkxPSIzNzIiIHkyPSIzNzIiLz48cmVjdCBmaWxsPSJub25lIiBoZWlnaHQ9IjYiIHN0eWxlPSJzdHJva2U6I0M4MjkzMDtzdHJva2Utd2lkdGg6MS4wOyIgd2lkdGg9IjYiIHg9IjI0NyIgeT0iMzgxLjk5MjIiLz48dGV4dCBmaWxsPSIjMDAwMDAwIiBmb250LWZhbWlseT0ic2Fucy1zZXJpZiIgZm9udC1zaXplPSIxNCIgbGVuZ3RoQWRqdXN0PSJzcGFjaW5nIiB0ZXh0TGVuZ3RoPSI0OSIgeD0iMjU5IiB5PSIzODkuMjM0NCI+aWQ6IGludDwvdGV4dD48cmVjdCBmaWxsPSJub25lIiBoZWlnaHQ9IjYiIHN0eWxlPSJzdHJva2U6I0M4MjkzMDtzdHJva2Utd2lkdGg6MS4wOyIgd2lkdGg9IjYiIHg9IjI0NyIgeT0iMzk2Ljk3NjYiLz48dGV4dCBmaWxsPSIjMDAwMDAwIiBmb250LWZhbWlseT0ic2Fucy1zZXJpZiIgZm9udC1zaXplPSIxNCIgbGVuZ3RoQWRqdXN0PSJzcGFjaW5nIiB0ZXh0TGVuZ3RoPSI5OSIgeD0iMjU5IiB5PSI0MDQuMjE4OCI+ZGF0YTogZGF0ZXRpbWU8L3RleHQ+PHJlY3QgZmlsbD0ibm9uZSIgaGVpZ2h0PSI2IiBzdHlsZT0ic3Ryb2tlOiNDODI5MzA7c3Ryb2tlLXdpZHRoOjEuMDsiIHdpZHRoPSI2IiB4PSIyNDciIHk9IjQxMS45NjA5Ii8+PHRleHQgZmlsbD0iIzAwMDAwMCIgZm9udC1mYW1pbHk9InNhbnMtc2VyaWYiIGZvbnQtc2l6ZT0iMTQiIGxlbmd0aEFkanVzdD0ic3BhY2luZyIgdGV4dExlbmd0aD0iNjMiIHg9IjI1OSIgeT0iNDE5LjIwMzEiPnRpcG86IHN0cjwvdGV4dD48bGluZSBzdHlsZT0ic3Ryb2tlOiMxODE4MTg7c3Ryb2tlLXdpZHRoOjAuNTsiIHgxPSIyNDAiIHgyPSIzNjMiIHkxPSI0MjQuOTUzMSIgeTI9IjQyNC45NTMxIi8+PGVsbGlwc2UgY3g9IjI1MCIgY3k9IjQzNy45NDUzIiBmaWxsPSIjODRCRTg0IiByeD0iMyIgcnk9IjMiIHN0eWxlPSJzdHJva2U6IzAzODA0ODtzdHJva2Utd2lkdGg6MS4wOyIvPjx0ZXh0IGZpbGw9IiMwMDAwMDAiIGZvbnQtZmFtaWx5PSJzYW5zLXNlcmlmIiBmb250LXNpemU9IjE0IiBsZW5ndGhBZGp1c3Q9InNwYWNpbmciIHRleHRMZW5ndGg9IjkzIiB4PSIyNTkiIHk9IjQ0Mi4xODc1Ij5nZXJhckRpYXJpbygpPC90ZXh0PjxlbGxpcHNlIGN4PSIyNTAiIGN5PSI0NTIuOTI5NyIgZmlsbD0iIzg0QkU4NCIgcng9IjMiIHJ5PSIzIiBzdHlsZT0ic3Ryb2tlOiMwMzgwNDg7c3Ryb2tlLXdpZHRoOjEuMDsiLz48dGV4dCBmaWxsPSIjMDAwMDAwIiBmb250LWZhbWlseT0ic2Fucy1zZXJpZiIgZm9udC1zaXplPSIxNCIgbGVuZ3RoQWRqdXN0PSJzcGFjaW5nIiB0ZXh0TGVuZ3RoPSI5MyIgeD0iMjU5IiB5PSI0NTcuMTcxOSI+Z2VyYXJNZW5zYWwoKTwvdGV4dD48ZWxsaXBzZSBjeD0iMjUwIiBjeT0iNDY3LjkxNDEiIGZpbGw9IiM4NEJFODQiIHJ4PSIzIiByeT0iMyIgc3R5bGU9InN0cm9rZTojMDM4MDQ4O3N0cm9rZS13aWR0aDoxLjA7Ii8+PHRleHQgZmlsbD0iIzAwMDAwMCIgZm9udC1mYW1pbHk9InNhbnMtc2VyaWYiIGZvbnQtc2l6ZT0iMTQiIGxlbmd0aEFkanVzdD0ic3BhY2luZyIgdGV4dExlbmd0aD0iODYiIHg9IjI1OSIgeT0iNDcyLjE1NjMiPmdlcmFyQW51YWwoKTwvdGV4dD48L2c+PCEtLWNsYXNzIEZ1bmNpb25hcmlvLS0+PGcgaWQ9ImVsZW1fRnVuY2lvbmFyaW8iPjxyZWN0IGZpbGw9IiNGMUYxRjEiIGhlaWdodD0iNDgiIGlkPSJGdW5jaW9uYXJpbyIgcng9IjIuNSIgcnk9IjIuNSIgc3R5bGU9InN0cm9rZTojMTgxODE4O3N0cm9rZS13aWR0aDowLjU7IiB3aWR0aD0iMTA5IiB4PSI2NDMiIHk9IjgyIi8+PGVsbGlwc2UgY3g9IjY1OCIgY3k9Ijk4IiBmaWxsPSIjQUREMUIyIiByeD0iMTEiIHJ5PSIxMSIgc3R5bGU9InN0cm9rZTojMTgxODE4O3N0cm9rZS13aWR0aDoxLjA7Ii8+PHBhdGggZD0iTTY1NS42MjUsMTAyLjI1IEw2NTUuNjI1LDEwNCBMNjYwLjU2MjUsMTA0IEw2NjAuNTYyNSwxMDIuMjUgTDY1NS42MjUsMTAyLjI1IFogTTY1Ni4zMTI1LDEwMi45Mzc1IFE2NTYuMzEyNSwxMDIuOTM3NSA2NTYuMzEyNSw5My43NSBMNjU0LjU2MjUsOTMuNzUgUTY1NC41NjI1LDkzLjc1IDY1NC41NjI1LDEwMi45Mzc1IEw2NTYuMzEyNSwxMDIuOTM3NSBaIE02NTkuODc1LDEwMi45Mzc1IEw2NjEuNjI1LDEwMi45Mzc1IFE2NjEuNjI1LDEwMi45Mzc1IDY2MS42MjUsMTAwLjEyNSBMNjU5Ljg3NSwxMDAuMTI1IFE2NTkuODc1LDEwMC4xMjUgNjU5Ljg3NSwxMDIuOTM3NSBaIE02NTkuODc1LDkzLjc1IFE2NTkuODc1LDkzLjc1IDY1OS44NzUsOTYuNTYyNSBMNjYxLjYyNSw5Ni41NjI1IFE2NjEuNjI1LDk2LjU2MjUgNjYxLjYyNSw5My43NSBMNjU5Ljg3NSw5My43NSBaIE02NTUuNjI1LDk0LjQzNzUgTDY2MC41NjI1LDk0LjQzNzUgTDY2MC41NjI1LDkyLjY4NzUgTDY1NS42MjUsOTIuNjg3NSBMNjU1LjYyNSw5NC40Mzc1IFogIiBmaWxsPSIjMDAwMDAwIi8+PHRleHQgZmlsbD0iIzAwMDAwMCIgZm9udC1mYW1pbHk9InNhbnMtc2VyaWYiIGZvbnQtc2l6ZT0iMTQiIGxlbmd0aEFkanVzdD0ic3BhY2luZyIgdGV4dExlbmd0aD0iNzciIHg9IjY3MiIgeT0iMTAzLjc0MjIiPkZ1bmNpb25hcmlvPC90ZXh0PjxsaW5lIHN0eWxlPSJzdHJva2U6IzE4MTgxODtzdHJva2Utd2lkdGg6MC41OyIgeDE9IjY0NCIgeDI9Ijc1MSIgeTE9IjExNCIgeTI9IjExNCIvPjxsaW5lIHN0eWxlPSJzdHJva2U6IzE4MTgxODtzdHJva2Utd2lkdGg6MC41OyIgeDE9IjY0NCIgeDI9Ijc1MSIgeTE9IjEyMiIgeTI9IjEyMiIvPjwvZz48IS0tbGluayBDbGllbnRlIHRvIFZlbmRhLS0+PGcgaWQ9ImxpbmtfQ2xpZW50ZV9WZW5kYSI+PHBhdGggY29kZUxpbmU9IjEyMiIgZD0iTTUwOS41LDIwNS4xNCBDNTA5LjUsMjQ2LjQ5IDUwOS41LDI5My44NiA1MDkuNSwzMzIuNDIgIiBmaWxsPSJub25lIiBpZD0iQ2xpZW50ZS1WZW5kYSIgc3R5bGU9InN0cm9rZTojMTgxODE4O3N0cm9rZS13aWR0aDoxLjA7Ii8+PHRleHQgZmlsbD0iIzAwMDAwMCIgZm9udC1mYW1pbHk9InNhbnMtc2VyaWYiIGZvbnQtc2l6ZT0iMTMiIGxlbmd0aEFkanVzdD0ic3BhY2luZyIgdGV4dExlbmd0aD0iNyIgeD0iNTAyLjI0MyIgeT0iMjI1LjIyNjMiPjE8L3RleHQ+PHRleHQgZmlsbD0iIzAwMDAwMCIgZm9udC1mYW1pbHk9InNhbnMtc2VyaWYiIGZvbnQtc2l6ZT0iMTMiIGxlbmd0aEFkanVzdD0ic3BhY2luZyIgdGV4dExlbmd0aD0iMjUiIHg9IjQ4My4xMzI4IiB5PSIzMjIuNjc4MiI+MC4uKjwvdGV4dD48L2c+PCEtLWxpbmsgRnVuY2lvbmFyaW8gdG8gVmVuZGEtLT48ZyBpZD0ibGlua19GdW5jaW9uYXJpb19WZW5kYSI+PHBhdGggY29kZUxpbmU9IjEyMyIgZD0iTTY4My4wNiwxMzAuMTIgQzY1Ni40MSwxNzIuNzkgNTk4LjQsMjY1LjY2IDU1Ni43OCwzMzIuMyAiIGZpbGw9Im5vbmUiIGlkPSJGdW5jaW9uYXJpby1WZW5kYSIgc3R5bGU9InN0cm9rZTojMTgxODE4O3N0cm9rZS13aWR0aDoxLjA7Ii8+PHRleHQgZmlsbD0iIzAwMDAwMCIgZm9udC1mYW1pbHk9InNhbnMtc2VyaWYiIGZvbnQtc2l6ZT0iMTMiIGxlbmd0aEFkanVzdD0ic3BhY2luZyIgdGV4dExlbmd0aD0iNyIgeD0iNjcxLjQ2MjkiIHk9IjE1MC4zNzI2Ij4xPC90ZXh0Pjx0ZXh0IGZpbGw9IiMwMDAwMDAiIGZvbnQtZmFtaWx5PSJzYW5zLXNlcmlmIiBmb250LXNpemU9IjEzIiBsZW5ndGhBZGp1c3Q9InNwYWNpbmciIHRleHRMZW5ndGg9IjI1IiB4PSI1MzUuMzY2NyIgeT0iMzIzLjA2MTgiPjAuLio8L3RleHQ+PC9nPjwhLS1saW5rIFByb2R1dG8gdG8gSXRlbVZlbmRhLS0+PGcgaWQ9ImxpbmtfUHJvZHV0b19JdGVtVmVuZGEiPjxwYXRoIGNvZGVMaW5lPSIxMjQiIGQ9Ik04MjIuOTIsNTI4LjM2IEM4MTcuMTcsNTM2Ljc5IDgxMS4zMyw1NDUuMDkgODA1LjUsNTUzIEM3OTAuNjUsNTczLjE3IDc3My4zNSw1OTQuMjMgNzU3LjIxLDYxMi45OSAiIGZpbGw9Im5vbmUiIGlkPSJQcm9kdXRvLUl0ZW1WZW5kYSIgc3R5bGU9InN0cm9rZTojMTgxODE4O3N0cm9rZS13aWR0aDoxLjA7Ii8+PHRleHQgZmlsbD0iIzAwMDAwMCIgZm9udC1mYW1pbHk9InNhbnMtc2VyaWYiIGZvbnQtc2l6ZT0iMTMiIGxlbmd0aEFkanVzdD0ic3BhY2luZyIgdGV4dExlbmd0aD0iNyIgeD0iODA4LjA3NDMiIHk9IjUzOS4zNDc4Ij4xPC90ZXh0Pjx0ZXh0IGZpbGw9IiMwMDAwMDAiIGZvbnQtZmFtaWx5PSJzYW5zLXNlcmlmIiBmb250LXNpemU9IjEzIiBsZW5ndGhBZGp1c3Q9InNwYWNpbmciIHRleHRMZW5ndGg9IjI1IiB4PSI3MzcuODgyIiB5PSI2MDMuMjA2OSI+MC4uKjwvdGV4dD48L2c+PCEtLWxpbmsgVmVuZGEgdG8gSXRlbVZlbmRhLS0+PGcgaWQ9ImxpbmtfVmVuZGFfSXRlbVZlbmRhIj48cGF0aCBjb2RlTGluZT0iMTI1IiBkPSJNNTY0LjgxLDQ4NS41MSBDNTk0LjMyLDUyNS44MSA2MzAuMTcsNTc0Ljc1IDY1Ny44OSw2MTIuNiAiIGZpbGw9Im5vbmUiIGlkPSJWZW5kYS1JdGVtVmVuZGEiIHN0eWxlPSJzdHJva2U6IzE4MTgxODtzdHJva2Utd2lkdGg6MS4wOyIvPjx0ZXh0IGZpbGw9IiMwMDAwMDAiIGZvbnQtZmFtaWx5PSJzYW5zLXNlcmlmIiBmb250LXNpemU9IjEzIiBsZW5ndGhBZGp1c3Q9InNwYWNpbmciIHRleHRMZW5ndGg9IjciIHg9IjU2Mi43NDgxIiB5PSI1MDUuNzU5NyI+MTwvdGV4dD48dGV4dCBmaWxsPSIjMDAwMDAwIiBmb250LWZhbWlseT0ic2Fucy1zZXJpZiIgZm9udC1zaXplPSIxMyIgbGVuZ3RoQWRqdXN0PSJzcGFjaW5nIiB0ZXh0TGVuZ3RoPSIyNSIgeD0iNjI1LjU3MjgiIHk9IjYwMy4xODg5Ij4wLi4qPC90ZXh0PjwvZz48IS0tbGluayBGdW5jaW9uYXJpbyB0byBQYWdhbWVudG8tLT48ZyBpZD0ibGlua19GdW5jaW9uYXJpb19QYWdhbWVudG8iPjxwYXRoIGNvZGVMaW5lPSIxMjYiIGQ9Ik02OTguNTgsMTMwLjEyIEM3MDAuNTYsMTcyLjc5IDcwNC44OCwyNjUuNjYgNzA3Ljk4LDMzMi4zICIgZmlsbD0ibm9uZSIgaWQ9IkZ1bmNpb25hcmlvLVBhZ2FtZW50byIgc3R5bGU9InN0cm9rZTojMTgxODE4O3N0cm9rZS13aWR0aDoxLjA7Ii8+PHRleHQgZmlsbD0iIzAwMDAwMCIgZm9udC1mYW1pbHk9InNhbnMtc2VyaWYiIGZvbnQtc2l6ZT0iMTMiIGxlbmd0aEFkanVzdD0ic3BhY2luZyIgdGV4dExlbmd0aD0iNyIgeD0iNjkwLjk1OTkiIHk9IjE1MC4zNzI2Ij4xPC90ZXh0Pjx0ZXh0IGZpbGw9IiMwMDAwMDAiIGZvbnQtZmFtaWx5PSJzYW5zLXNlcmlmIiBmb250LXNpemU9IjEzIiBsZW5ndGhBZGp1c3Q9InNwYWNpbmciIHRleHRMZW5ndGg9IjI1IiB4PSI2ODEuMzI3OSIgeT0iMzIzLjA2MTgiPjAuLio8L3RleHQ+PC9nPjwhLS1saW5rIEZvcm5lY2Vkb3IgdG8gUHJvZHV0by0tPjxnIGlkPSJsaW5rX0Zvcm5lY2Vkb3JfUHJvZHV0byI+PHBhdGggY29kZUxpbmU9IjEyNyIgZD0iTTg5NS41LDE5Ny43MiBDODk1LjUsMjE4LjkyIDg5NS41LDI0Mi4wMiA4OTUuNSwyNjQuODkgIiBmaWxsPSJub25lIiBpZD0iRm9ybmVjZWRvci1Qcm9kdXRvIiBzdHlsZT0ic3Ryb2tlOiMxODE4MTg7c3Ryb2tlLXdpZHRoOjEuMDsiLz48dGV4dCBmaWxsPSIjMDAwMDAwIiBmb250LWZhbWlseT0ic2Fucy1zZXJpZiIgZm9udC1zaXplPSIxMyIgbGVuZ3RoQWRqdXN0PSJzcGFjaW5nIiB0ZXh0TGVuZ3RoPSI3IiB4PSI4ODguMjMyIiB5PSIyMTcuNTY5NCI+MTwvdGV4dD48dGV4dCBmaWxsPSIjMDAwMDAwIiBmb250LWZhbWlseT0ic2Fucy1zZXJpZiIgZm9udC1zaXplPSIxMyIgbGVuZ3RoQWRqdXN0PSJzcGFjaW5nIiB0ZXh0TGVuZ3RoPSIyNSIgeD0iODY5Ljc3NzMiIHk9IjI1NS41MDU2Ij4wLi4qPC90ZXh0PjwvZz48IS0tU1JDPVtyTExCWnpDbTRCeGRMcUd6MExMTlNFc2pBWWdnbjJBcUYydzhteklVUDBTdlRqUUZnV0JudF82WklVcmtBYktCMXBRdC1TUVUtTVJjNnVTOUNBUFUycTlmaVZ2THJWdlI0NV9NOTZxb2ZFZm1NSGtoYXlkd1BZdHg3bmMyYWdENmZaQjhlaTE2b1ZtVVRhMFlpcGJPLTAyNktVU3AteGxVbmtZUEMtM1dadTUteUo4MTgybmM5WHdPUzFKQ3RyTjU4bC1MM0lIeTFUU0x5Ny1IVi1TOUY1Rmc2d0tiQ2tIQU5vYVR6Vy1heW5JWTd4TllwZ2ZoTUZRMXE1VkYzOVByOG5KTzM1dXg0dGdNbUd5RWYyS0U3QkU4cEZVcUxQZVcyc2xTUldoa0dCRlNIZjJQdlVHbnpDZGwySm11bDJNUHZIajBFNkpXN2lKbnliLURFN1BZaWN6MUlJY3V6TThRYW9oek1MYUdIUFY4eHdUUHJrXzlzNnpSWXJxQy1scjhXSENaOUs0N25xMTRPd1ZzTTQwRElMX0hKejNuU2F2blozWDlpcS1adC1ST3ZESllYQno4aWcyZjdGOC0xMXkyWjZkTkc4VkJkTGRqSzVrZDhNal9uM1Y4eGs1eXpuTzYxNVRSd0pqbnJoZGVzOEpJN3lDaHdxZnUzWmpEdXAyUmE0Y1ZFamZJN0ZxVDZrRHdkVlJfYVZTSm9ET2hUQzN6M0ZudnJ3YlljUTFENUttTTdvTEdhOXFJWWdLLXRfZ1ltbjVmZDRvb2U2OXE5d092ZXBpS09GcmNnUWs1TWtRVmpzNEJ0YkI4RGZHVWVMa2xNbjA1ajk4azhaeHZ5RGtTbFBkTFlxS3pVdHJweXNnTURnUlFkRlhGLWVTTmdWSURLZ3dJZTJ6dkJxU1ZYckRiWl9GUGFQSnczbTAwXS0tPjwvZz48L3N2Zz4=;" vertex="1" parent="1">
            <mxGeometry x="-80" width="975" height="742" as="geometry" />
          </mxCell>
        </UserObject>
      </root>
    </mxGraphModel>
  </diagram>
</mxfile>
